<?xml version="1.0" encoding="utf-8" standalone="no"?>
<!DOCTYPE svg PUBLIC "-//W3C//DTD SVG 1.1//EN"
  "http://www.w3.org/Graphics/SVG/1.1/DTD/svg11.dtd">
<svg xmlns:xlink="http://www.w3.org/1999/xlink" width="460.8pt" height="345.6pt" viewBox="0 0 460.8 345.6" xmlns="http://www.w3.org/2000/svg" version="1.1">
 <metadata>
  <rdf:RDF xmlns:dc="http://purl.org/dc/elements/1.1/" xmlns:cc="http://creativecommons.org/ns#" xmlns:rdf="http://www.w3.org/1999/02/22-rdf-syntax-ns#">
   <cc:Work>
    <dc:type rdf:resource="http://purl.org/dc/dcmitype/StillImage"/>
    <dc:date>2023-11-02T03:46:03.345932</dc:date>
    <dc:format>image/svg+xml</dc:format>
    <dc:creator>
     <cc:Agent>
      <dc:title>Matplotlib v3.8.0, https://matplotlib.org/</dc:title>
     </cc:Agent>
    </dc:creator>
   </cc:Work>
  </rdf:RDF>
 </metadata>
 <defs>
  <style type="text/css">*{stroke-linejoin: round; stroke-linecap: butt}</style>
 </defs>
 <g id="figure_1">
  <g id="patch_1">
   <path d="M 0 345.6 
L 460.8 345.6 
L 460.8 0 
L 0 0 
z
" style="fill: #ffffff"/>
  </g>
  <g id="axes_1">
   <g id="patch_2">
    <path d="M 57.6 307.584 
L 414.72 307.584 
L 414.72 41.472 
L 57.6 41.472 
z
" style="fill: #ffffff"/>
   </g>
   <g id="matplotlib.axis_1">
    <g id="xtick_1">
     <g id="line2d_1">
      <defs>
       <path id="m96d4504f28" d="M 0 0 
L 0 3.5 
" style="stroke: #000000; stroke-width: 0.8"/>
      </defs>
      <g>
       <use xlink:href="#m96d4504f28" x="73.832727" y="307.584" style="stroke: #000000; stroke-width: 0.8"/>
      </g>
     </g>
     <g id="text_1">
      <!-- 0 -->
      <g transform="translate(70.651477 322.182437) scale(0.1 -0.1)">
       <defs>
        <path id="DejaVuSans-30" d="M 2034 4250 
Q 1547 4250 1301 3770 
Q 1056 3291 1056 2328 
Q 1056 1369 1301 889 
Q 1547 409 2034 409 
Q 2525 409 2770 889 
Q 3016 1369 3016 2328 
Q 3016 3291 2770 3770 
Q 2525 4250 2034 4250 
z
M 2034 4750 
Q 2819 4750 3233 4129 
Q 3647 3509 3647 2328 
Q 3647 1150 3233 529 
Q 2819 -91 2034 -91 
Q 1250 -91 836 529 
Q 422 1150 422 2328 
Q 422 3509 836 4129 
Q 1250 4750 2034 4750 
z
" transform="scale(0.015625)"/>
       </defs>
       <use xlink:href="#DejaVuSans-30"/>
      </g>
     </g>
    </g>
    <g id="xtick_2">
     <g id="line2d_2">
      <g>
       <use xlink:href="#m96d4504f28" x="117.062541" y="307.584" style="stroke: #000000; stroke-width: 0.8"/>
      </g>
     </g>
     <g id="text_2">
      <!-- 1 -->
      <g transform="translate(113.881291 322.182437) scale(0.1 -0.1)">
       <defs>
        <path id="DejaVuSans-31" d="M 794 531 
L 1825 531 
L 1825 4091 
L 703 3866 
L 703 4441 
L 1819 4666 
L 2450 4666 
L 2450 531 
L 3481 531 
L 3481 0 
L 794 0 
L 794 531 
z
" transform="scale(0.015625)"/>
       </defs>
       <use xlink:href="#DejaVuSans-31"/>
      </g>
     </g>
    </g>
    <g id="xtick_3">
     <g id="line2d_3">
      <g>
       <use xlink:href="#m96d4504f28" x="160.292355" y="307.584" style="stroke: #000000; stroke-width: 0.8"/>
      </g>
     </g>
     <g id="text_3">
      <!-- 2 -->
      <g transform="translate(157.111105 322.182437) scale(0.1 -0.1)">
       <defs>
        <path id="DejaVuSans-32" d="M 1228 531 
L 3431 531 
L 3431 0 
L 469 0 
L 469 531 
Q 828 903 1448 1529 
Q 2069 2156 2228 2338 
Q 2531 2678 2651 2914 
Q 2772 3150 2772 3378 
Q 2772 3750 2511 3984 
Q 2250 4219 1831 4219 
Q 1534 4219 1204 4116 
Q 875 4013 500 3803 
L 500 4441 
Q 881 4594 1212 4672 
Q 1544 4750 1819 4750 
Q 2544 4750 2975 4387 
Q 3406 4025 3406 3419 
Q 3406 3131 3298 2873 
Q 3191 2616 2906 2266 
Q 2828 2175 2409 1742 
Q 1991 1309 1228 531 
z
" transform="scale(0.015625)"/>
       </defs>
       <use xlink:href="#DejaVuSans-32"/>
      </g>
     </g>
    </g>
    <g id="xtick_4">
     <g id="line2d_4">
      <g>
       <use xlink:href="#m96d4504f28" x="203.522169" y="307.584" style="stroke: #000000; stroke-width: 0.8"/>
      </g>
     </g>
     <g id="text_4">
      <!-- 3 -->
      <g transform="translate(200.340919 322.182437) scale(0.1 -0.1)">
       <defs>
        <path id="DejaVuSans-33" d="M 2597 2516 
Q 3050 2419 3304 2112 
Q 3559 1806 3559 1356 
Q 3559 666 3084 287 
Q 2609 -91 1734 -91 
Q 1441 -91 1130 -33 
Q 819 25 488 141 
L 488 750 
Q 750 597 1062 519 
Q 1375 441 1716 441 
Q 2309 441 2620 675 
Q 2931 909 2931 1356 
Q 2931 1769 2642 2001 
Q 2353 2234 1838 2234 
L 1294 2234 
L 1294 2753 
L 1863 2753 
Q 2328 2753 2575 2939 
Q 2822 3125 2822 3475 
Q 2822 3834 2567 4026 
Q 2313 4219 1838 4219 
Q 1578 4219 1281 4162 
Q 984 4106 628 3988 
L 628 4550 
Q 988 4650 1302 4700 
Q 1616 4750 1894 4750 
Q 2613 4750 3031 4423 
Q 3450 4097 3450 3541 
Q 3450 3153 3228 2886 
Q 3006 2619 2597 2516 
z
" transform="scale(0.015625)"/>
       </defs>
       <use xlink:href="#DejaVuSans-33"/>
      </g>
     </g>
    </g>
    <g id="xtick_5">
     <g id="line2d_5">
      <g>
       <use xlink:href="#m96d4504f28" x="246.751983" y="307.584" style="stroke: #000000; stroke-width: 0.8"/>
      </g>
     </g>
     <g id="text_5">
      <!-- 4 -->
      <g transform="translate(243.570733 322.182437) scale(0.1 -0.1)">
       <defs>
        <path id="DejaVuSans-34" d="M 2419 4116 
L 825 1625 
L 2419 1625 
L 2419 4116 
z
M 2253 4666 
L 3047 4666 
L 3047 1625 
L 3713 1625 
L 3713 1100 
L 3047 1100 
L 3047 0 
L 2419 0 
L 2419 1100 
L 313 1100 
L 313 1709 
L 2253 4666 
z
" transform="scale(0.015625)"/>
       </defs>
       <use xlink:href="#DejaVuSans-34"/>
      </g>
     </g>
    </g>
    <g id="xtick_6">
     <g id="line2d_6">
      <g>
       <use xlink:href="#m96d4504f28" x="289.981797" y="307.584" style="stroke: #000000; stroke-width: 0.8"/>
      </g>
     </g>
     <g id="text_6">
      <!-- 5 -->
      <g transform="translate(286.800547 322.182437) scale(0.1 -0.1)">
       <defs>
        <path id="DejaVuSans-35" d="M 691 4666 
L 3169 4666 
L 3169 4134 
L 1269 4134 
L 1269 2991 
Q 1406 3038 1543 3061 
Q 1681 3084 1819 3084 
Q 2600 3084 3056 2656 
Q 3513 2228 3513 1497 
Q 3513 744 3044 326 
Q 2575 -91 1722 -91 
Q 1428 -91 1123 -41 
Q 819 9 494 109 
L 494 744 
Q 775 591 1075 516 
Q 1375 441 1709 441 
Q 2250 441 2565 725 
Q 2881 1009 2881 1497 
Q 2881 1984 2565 2268 
Q 2250 2553 1709 2553 
Q 1456 2553 1204 2497 
Q 953 2441 691 2322 
L 691 4666 
z
" transform="scale(0.015625)"/>
       </defs>
       <use xlink:href="#DejaVuSans-35"/>
      </g>
     </g>
    </g>
    <g id="xtick_7">
     <g id="line2d_7">
      <g>
       <use xlink:href="#m96d4504f28" x="333.211611" y="307.584" style="stroke: #000000; stroke-width: 0.8"/>
      </g>
     </g>
     <g id="text_7">
      <!-- 6 -->
      <g transform="translate(330.030361 322.182437) scale(0.1 -0.1)">
       <defs>
        <path id="DejaVuSans-36" d="M 2113 2584 
Q 1688 2584 1439 2293 
Q 1191 2003 1191 1497 
Q 1191 994 1439 701 
Q 1688 409 2113 409 
Q 2538 409 2786 701 
Q 3034 994 3034 1497 
Q 3034 2003 2786 2293 
Q 2538 2584 2113 2584 
z
M 3366 4563 
L 3366 3988 
Q 3128 4100 2886 4159 
Q 2644 4219 2406 4219 
Q 1781 4219 1451 3797 
Q 1122 3375 1075 2522 
Q 1259 2794 1537 2939 
Q 1816 3084 2150 3084 
Q 2853 3084 3261 2657 
Q 3669 2231 3669 1497 
Q 3669 778 3244 343 
Q 2819 -91 2113 -91 
Q 1303 -91 875 529 
Q 447 1150 447 2328 
Q 447 3434 972 4092 
Q 1497 4750 2381 4750 
Q 2619 4750 2861 4703 
Q 3103 4656 3366 4563 
z
" transform="scale(0.015625)"/>
       </defs>
       <use xlink:href="#DejaVuSans-36"/>
      </g>
     </g>
    </g>
    <g id="xtick_8">
     <g id="line2d_8">
      <g>
       <use xlink:href="#m96d4504f28" x="376.441425" y="307.584" style="stroke: #000000; stroke-width: 0.8"/>
      </g>
     </g>
     <g id="text_8">
      <!-- 7 -->
      <g transform="translate(373.260175 322.182437) scale(0.1 -0.1)">
       <defs>
        <path id="DejaVuSans-37" d="M 525 4666 
L 3525 4666 
L 3525 4397 
L 1831 0 
L 1172 0 
L 2766 4134 
L 525 4134 
L 525 4666 
z
" transform="scale(0.015625)"/>
       </defs>
       <use xlink:href="#DejaVuSans-37"/>
      </g>
     </g>
    </g>
    <g id="text_9">
     <!-- Time in seconds -->
     <g transform="translate(195.752969 335.860562) scale(0.1 -0.1)">
      <defs>
       <path id="DejaVuSans-54" d="M -19 4666 
L 3928 4666 
L 3928 4134 
L 2272 4134 
L 2272 0 
L 1638 0 
L 1638 4134 
L -19 4134 
L -19 4666 
z
" transform="scale(0.015625)"/>
       <path id="DejaVuSans-69" d="M 603 3500 
L 1178 3500 
L 1178 0 
L 603 0 
L 603 3500 
z
M 603 4863 
L 1178 4863 
L 1178 4134 
L 603 4134 
L 603 4863 
z
" transform="scale(0.015625)"/>
       <path id="DejaVuSans-6d" d="M 3328 2828 
Q 3544 3216 3844 3400 
Q 4144 3584 4550 3584 
Q 5097 3584 5394 3201 
Q 5691 2819 5691 2113 
L 5691 0 
L 5113 0 
L 5113 2094 
Q 5113 2597 4934 2840 
Q 4756 3084 4391 3084 
Q 3944 3084 3684 2787 
Q 3425 2491 3425 1978 
L 3425 0 
L 2847 0 
L 2847 2094 
Q 2847 2600 2669 2842 
Q 2491 3084 2119 3084 
Q 1678 3084 1418 2786 
Q 1159 2488 1159 1978 
L 1159 0 
L 581 0 
L 581 3500 
L 1159 3500 
L 1159 2956 
Q 1356 3278 1631 3431 
Q 1906 3584 2284 3584 
Q 2666 3584 2933 3390 
Q 3200 3197 3328 2828 
z
" transform="scale(0.015625)"/>
       <path id="DejaVuSans-65" d="M 3597 1894 
L 3597 1613 
L 953 1613 
Q 991 1019 1311 708 
Q 1631 397 2203 397 
Q 2534 397 2845 478 
Q 3156 559 3463 722 
L 3463 178 
Q 3153 47 2828 -22 
Q 2503 -91 2169 -91 
Q 1331 -91 842 396 
Q 353 884 353 1716 
Q 353 2575 817 3079 
Q 1281 3584 2069 3584 
Q 2775 3584 3186 3129 
Q 3597 2675 3597 1894 
z
M 3022 2063 
Q 3016 2534 2758 2815 
Q 2500 3097 2075 3097 
Q 1594 3097 1305 2825 
Q 1016 2553 972 2059 
L 3022 2063 
z
" transform="scale(0.015625)"/>
       <path id="DejaVuSans-20" transform="scale(0.015625)"/>
       <path id="DejaVuSans-6e" d="M 3513 2113 
L 3513 0 
L 2938 0 
L 2938 2094 
Q 2938 2591 2744 2837 
Q 2550 3084 2163 3084 
Q 1697 3084 1428 2787 
Q 1159 2491 1159 1978 
L 1159 0 
L 581 0 
L 581 3500 
L 1159 3500 
L 1159 2956 
Q 1366 3272 1645 3428 
Q 1925 3584 2291 3584 
Q 2894 3584 3203 3211 
Q 3513 2838 3513 2113 
z
" transform="scale(0.015625)"/>
       <path id="DejaVuSans-73" d="M 2834 3397 
L 2834 2853 
Q 2591 2978 2328 3040 
Q 2066 3103 1784 3103 
Q 1356 3103 1142 2972 
Q 928 2841 928 2578 
Q 928 2378 1081 2264 
Q 1234 2150 1697 2047 
L 1894 2003 
Q 2506 1872 2764 1633 
Q 3022 1394 3022 966 
Q 3022 478 2636 193 
Q 2250 -91 1575 -91 
Q 1294 -91 989 -36 
Q 684 19 347 128 
L 347 722 
Q 666 556 975 473 
Q 1284 391 1588 391 
Q 1994 391 2212 530 
Q 2431 669 2431 922 
Q 2431 1156 2273 1281 
Q 2116 1406 1581 1522 
L 1381 1569 
Q 847 1681 609 1914 
Q 372 2147 372 2553 
Q 372 3047 722 3315 
Q 1072 3584 1716 3584 
Q 2034 3584 2315 3537 
Q 2597 3491 2834 3397 
z
" transform="scale(0.015625)"/>
       <path id="DejaVuSans-63" d="M 3122 3366 
L 3122 2828 
Q 2878 2963 2633 3030 
Q 2388 3097 2138 3097 
Q 1578 3097 1268 2742 
Q 959 2388 959 1747 
Q 959 1106 1268 751 
Q 1578 397 2138 397 
Q 2388 397 2633 464 
Q 2878 531 3122 666 
L 3122 134 
Q 2881 22 2623 -34 
Q 2366 -91 2075 -91 
Q 1284 -91 818 406 
Q 353 903 353 1747 
Q 353 2603 823 3093 
Q 1294 3584 2113 3584 
Q 2378 3584 2631 3529 
Q 2884 3475 3122 3366 
z
" transform="scale(0.015625)"/>
       <path id="DejaVuSans-6f" d="M 1959 3097 
Q 1497 3097 1228 2736 
Q 959 2375 959 1747 
Q 959 1119 1226 758 
Q 1494 397 1959 397 
Q 2419 397 2687 759 
Q 2956 1122 2956 1747 
Q 2956 2369 2687 2733 
Q 2419 3097 1959 3097 
z
M 1959 3584 
Q 2709 3584 3137 3096 
Q 3566 2609 3566 1747 
Q 3566 888 3137 398 
Q 2709 -91 1959 -91 
Q 1206 -91 779 398 
Q 353 888 353 1747 
Q 353 2609 779 3096 
Q 1206 3584 1959 3584 
z
" transform="scale(0.015625)"/>
       <path id="DejaVuSans-64" d="M 2906 2969 
L 2906 4863 
L 3481 4863 
L 3481 0 
L 2906 0 
L 2906 525 
Q 2725 213 2448 61 
Q 2172 -91 1784 -91 
Q 1150 -91 751 415 
Q 353 922 353 1747 
Q 353 2572 751 3078 
Q 1150 3584 1784 3584 
Q 2172 3584 2448 3432 
Q 2725 3281 2906 2969 
z
M 947 1747 
Q 947 1113 1208 752 
Q 1469 391 1925 391 
Q 2381 391 2643 752 
Q 2906 1113 2906 1747 
Q 2906 2381 2643 2742 
Q 2381 3103 1925 3103 
Q 1469 3103 1208 2742 
Q 947 2381 947 1747 
z
" transform="scale(0.015625)"/>
      </defs>
      <use xlink:href="#DejaVuSans-54"/>
      <use xlink:href="#DejaVuSans-69" x="57.958984"/>
      <use xlink:href="#DejaVuSans-6d" x="85.742188"/>
      <use xlink:href="#DejaVuSans-65" x="183.154297"/>
      <use xlink:href="#DejaVuSans-20" x="244.677734"/>
      <use xlink:href="#DejaVuSans-69" x="276.464844"/>
      <use xlink:href="#DejaVuSans-6e" x="304.248047"/>
      <use xlink:href="#DejaVuSans-20" x="367.626953"/>
      <use xlink:href="#DejaVuSans-73" x="399.414062"/>
      <use xlink:href="#DejaVuSans-65" x="451.513672"/>
      <use xlink:href="#DejaVuSans-63" x="513.037109"/>
      <use xlink:href="#DejaVuSans-6f" x="568.017578"/>
      <use xlink:href="#DejaVuSans-6e" x="629.199219"/>
      <use xlink:href="#DejaVuSans-64" x="692.578125"/>
      <use xlink:href="#DejaVuSans-73" x="756.054688"/>
     </g>
    </g>
   </g>
   <g id="matplotlib.axis_2">
    <g id="ytick_1">
     <g id="line2d_9">
      <defs>
       <path id="m969073ad57" d="M 0 0 
L -3.5 0 
" style="stroke: #000000; stroke-width: 0.8"/>
      </defs>
      <g>
       <use xlink:href="#m969073ad57" x="57.6" y="297.9072" style="stroke: #000000; stroke-width: 0.8"/>
      </g>
     </g>
     <g id="text_10">
      <!-- 0 -->
      <g transform="translate(44.2375 301.706419) scale(0.1 -0.1)">
       <use xlink:href="#DejaVuSans-30"/>
      </g>
     </g>
    </g>
    <g id="ytick_2">
     <g id="line2d_10">
      <g>
       <use xlink:href="#m969073ad57" x="57.6" y="249.5232" style="stroke: #000000; stroke-width: 0.8"/>
      </g>
     </g>
     <g id="text_11">
      <!-- 20 -->
      <g transform="translate(37.875 253.322419) scale(0.1 -0.1)">
       <use xlink:href="#DejaVuSans-32"/>
       <use xlink:href="#DejaVuSans-30" x="63.623047"/>
      </g>
     </g>
    </g>
    <g id="ytick_3">
     <g id="line2d_11">
      <g>
       <use xlink:href="#m969073ad57" x="57.6" y="201.1392" style="stroke: #000000; stroke-width: 0.8"/>
      </g>
     </g>
     <g id="text_12">
      <!-- 40 -->
      <g transform="translate(37.875 204.938419) scale(0.1 -0.1)">
       <use xlink:href="#DejaVuSans-34"/>
       <use xlink:href="#DejaVuSans-30" x="63.623047"/>
      </g>
     </g>
    </g>
    <g id="ytick_4">
     <g id="line2d_12">
      <g>
       <use xlink:href="#m969073ad57" x="57.6" y="152.7552" style="stroke: #000000; stroke-width: 0.8"/>
      </g>
     </g>
     <g id="text_13">
      <!-- 60 -->
      <g transform="translate(37.875 156.554419) scale(0.1 -0.1)">
       <use xlink:href="#DejaVuSans-36"/>
       <use xlink:href="#DejaVuSans-30" x="63.623047"/>
      </g>
     </g>
    </g>
    <g id="ytick_5">
     <g id="line2d_13">
      <g>
       <use xlink:href="#m969073ad57" x="57.6" y="104.3712" style="stroke: #000000; stroke-width: 0.8"/>
      </g>
     </g>
     <g id="text_14">
      <!-- 80 -->
      <g transform="translate(37.875 108.170419) scale(0.1 -0.1)">
       <defs>
        <path id="DejaVuSans-38" d="M 2034 2216 
Q 1584 2216 1326 1975 
Q 1069 1734 1069 1313 
Q 1069 891 1326 650 
Q 1584 409 2034 409 
Q 2484 409 2743 651 
Q 3003 894 3003 1313 
Q 3003 1734 2745 1975 
Q 2488 2216 2034 2216 
z
M 1403 2484 
Q 997 2584 770 2862 
Q 544 3141 544 3541 
Q 544 4100 942 4425 
Q 1341 4750 2034 4750 
Q 2731 4750 3128 4425 
Q 3525 4100 3525 3541 
Q 3525 3141 3298 2862 
Q 3072 2584 2669 2484 
Q 3125 2378 3379 2068 
Q 3634 1759 3634 1313 
Q 3634 634 3220 271 
Q 2806 -91 2034 -91 
Q 1263 -91 848 271 
Q 434 634 434 1313 
Q 434 1759 690 2068 
Q 947 2378 1403 2484 
z
M 1172 3481 
Q 1172 3119 1398 2916 
Q 1625 2713 2034 2713 
Q 2441 2713 2670 2916 
Q 2900 3119 2900 3481 
Q 2900 3844 2670 4047 
Q 2441 4250 2034 4250 
Q 1625 4250 1398 4047 
Q 1172 3844 1172 3481 
z
" transform="scale(0.015625)"/>
       </defs>
       <use xlink:href="#DejaVuSans-38"/>
       <use xlink:href="#DejaVuSans-30" x="63.623047"/>
      </g>
     </g>
    </g>
    <g id="ytick_6">
     <g id="line2d_14">
      <g>
       <use xlink:href="#m969073ad57" x="57.6" y="55.9872" style="stroke: #000000; stroke-width: 0.8"/>
      </g>
     </g>
     <g id="text_15">
      <!-- 100 -->
      <g transform="translate(31.5125 59.786419) scale(0.1 -0.1)">
       <use xlink:href="#DejaVuSans-31"/>
       <use xlink:href="#DejaVuSans-30" x="63.623047"/>
       <use xlink:href="#DejaVuSans-30" x="127.246094"/>
      </g>
     </g>
    </g>
    <g id="text_16">
     <!-- Generation -->
     <g transform="translate(25.432812 202.420969) rotate(-90) scale(0.1 -0.1)">
      <defs>
       <path id="DejaVuSans-47" d="M 3809 666 
L 3809 1919 
L 2778 1919 
L 2778 2438 
L 4434 2438 
L 4434 434 
Q 4069 175 3628 42 
Q 3188 -91 2688 -91 
Q 1594 -91 976 548 
Q 359 1188 359 2328 
Q 359 3472 976 4111 
Q 1594 4750 2688 4750 
Q 3144 4750 3555 4637 
Q 3966 4525 4313 4306 
L 4313 3634 
Q 3963 3931 3569 4081 
Q 3175 4231 2741 4231 
Q 1884 4231 1454 3753 
Q 1025 3275 1025 2328 
Q 1025 1384 1454 906 
Q 1884 428 2741 428 
Q 3075 428 3337 486 
Q 3600 544 3809 666 
z
" transform="scale(0.015625)"/>
       <path id="DejaVuSans-72" d="M 2631 2963 
Q 2534 3019 2420 3045 
Q 2306 3072 2169 3072 
Q 1681 3072 1420 2755 
Q 1159 2438 1159 1844 
L 1159 0 
L 581 0 
L 581 3500 
L 1159 3500 
L 1159 2956 
Q 1341 3275 1631 3429 
Q 1922 3584 2338 3584 
Q 2397 3584 2469 3576 
Q 2541 3569 2628 3553 
L 2631 2963 
z
" transform="scale(0.015625)"/>
       <path id="DejaVuSans-61" d="M 2194 1759 
Q 1497 1759 1228 1600 
Q 959 1441 959 1056 
Q 959 750 1161 570 
Q 1363 391 1709 391 
Q 2188 391 2477 730 
Q 2766 1069 2766 1631 
L 2766 1759 
L 2194 1759 
z
M 3341 1997 
L 3341 0 
L 2766 0 
L 2766 531 
Q 2569 213 2275 61 
Q 1981 -91 1556 -91 
Q 1019 -91 701 211 
Q 384 513 384 1019 
Q 384 1609 779 1909 
Q 1175 2209 1959 2209 
L 2766 2209 
L 2766 2266 
Q 2766 2663 2505 2880 
Q 2244 3097 1772 3097 
Q 1472 3097 1187 3025 
Q 903 2953 641 2809 
L 641 3341 
Q 956 3463 1253 3523 
Q 1550 3584 1831 3584 
Q 2591 3584 2966 3190 
Q 3341 2797 3341 1997 
z
" transform="scale(0.015625)"/>
       <path id="DejaVuSans-74" d="M 1172 4494 
L 1172 3500 
L 2356 3500 
L 2356 3053 
L 1172 3053 
L 1172 1153 
Q 1172 725 1289 603 
Q 1406 481 1766 481 
L 2356 481 
L 2356 0 
L 1766 0 
Q 1100 0 847 248 
Q 594 497 594 1153 
L 594 3053 
L 172 3053 
L 172 3500 
L 594 3500 
L 594 4494 
L 1172 4494 
z
" transform="scale(0.015625)"/>
      </defs>
      <use xlink:href="#DejaVuSans-47"/>
      <use xlink:href="#DejaVuSans-65" x="77.490234"/>
      <use xlink:href="#DejaVuSans-6e" x="139.013672"/>
      <use xlink:href="#DejaVuSans-65" x="202.392578"/>
      <use xlink:href="#DejaVuSans-72" x="263.916016"/>
      <use xlink:href="#DejaVuSans-61" x="305.029297"/>
      <use xlink:href="#DejaVuSans-74" x="366.308594"/>
      <use xlink:href="#DejaVuSans-69" x="405.517578"/>
      <use xlink:href="#DejaVuSans-6f" x="433.300781"/>
      <use xlink:href="#DejaVuSans-6e" x="494.482422"/>
     </g>
    </g>
   </g>
   <g id="line2d_15">
    <path d="M 73.832727 295.488 
L 73.893081 293.0688 
L 73.936914 290.6496 
L 75.211225 288.2304 
L 75.59499 285.8112 
L 77.538944 283.392 
L 77.641495 280.9728 
L 77.922821 278.5536 
L 81.977037 276.1344 
L 82.03083 273.7152 
L 82.081661 271.296 
L 86.054613 268.8768 
L 86.37753 266.4576 
L 86.442357 264.0384 
L 90.110057 261.6192 
L 91.11192 259.2 
L 94.815171 256.7808 
L 95.650887 254.3616 
L 96.88795 251.9424 
L 98.39429 249.5232 
L 102.19041 247.104 
L 153.616255 244.6848 
L 163.554059 242.2656 
L 165.534432 239.8464 
L 167.585494 237.4272 
L 168.384506 235.008 
L 174.543002 232.5888 
L 174.64643 230.1696 
L 174.749849 227.7504 
L 178.811544 225.3312 
L 188.017519 222.912 
L 188.358481 220.4928 
L 188.449661 218.0736 
L 197.211258 215.6544 
L 198.890323 213.2352 
L 202.122328 210.816 
L 202.167418 208.3968 
L 216.465963 205.9776 
L 224.704586 203.5584 
L 225.168178 201.1392 
L 225.262492 198.72 
L 225.329872 196.3008 
L 242.832272 193.8816 
L 243.136626 191.4624 
L 243.196568 189.0432 
L 244.864318 186.624 
L 244.96314 184.2048 
L 247.798538 181.7856 
L 258.477508 179.3664 
L 259.16231 176.9472 
L 259.728968 174.528 
L 261.67559 172.1088 
L 269.330315 169.6896 
L 269.428973 167.2704 
L 272.646573 164.8512 
L 272.692892 162.432 
L 274.250436 160.0128 
L 308.404508 157.5936 
L 308.508844 155.1744 
L 308.591873 152.7552 
L 308.918462 150.336 
L 309.031052 147.9168 
L 313.317819 145.4976 
L 335.749517 143.0784 
L 335.843951 140.6592 
L 335.926548 138.24 
L 337.359398 135.8208 
L 337.405242 133.4016 
L 337.566247 130.9824 
L 339.924724 128.5632 
L 340.156716 126.144 
L 340.197869 123.7248 
L 341.426422 121.3056 
L 341.514055 118.8864 
L 342.34154 116.4672 
L 346.911813 114.048 
L 347.966195 111.6288 
L 348.02575 109.2096 
L 348.098949 106.7904 
L 350.451661 104.3712 
L 351.035133 101.952 
L 363.60427 99.5328 
L 364.632175 97.1136 
L 367.89983 94.6944 
L 367.956505 92.2752 
L 368.009839 89.856 
L 386.809885 87.4368 
L 387.15464 85.0176 
L 390.929049 82.5984 
L 393.612818 80.1792 
L 393.7666 77.76 
L 393.836689 75.3408 
L 395.472084 72.9216 
L 395.571858 70.5024 
L 395.687842 68.0832 
L 395.809402 65.664 
L 396.402491 63.2448 
L 397.5098 60.8256 
L 398.268474 58.4064 
L 398.426553 55.9872 
L 398.487273 53.568 
" clip-path="url(#pe0198e71ef)" style="fill: none; stroke: #1f77b4; stroke-width: 1.5; stroke-linecap: square"/>
   </g>
   <g id="line2d_16">
    <path d="M 73.832727 295.488 
L 73.903604 293.0688 
L 76.701612 290.6496 
L 76.767113 288.2304 
L 76.827046 285.8112 
L 78.881742 283.392 
L 79.410172 280.9728 
L 79.706432 278.5536 
L 79.751898 276.1344 
L 81.251007 273.7152 
L 81.300657 271.296 
L 81.365278 268.8768 
L 81.427213 266.4576 
L 83.656397 264.0384 
L 85.516231 261.6192 
L 86.674392 259.2 
L 88.032441 256.7808 
L 88.816039 254.3616 
L 90.323438 251.9424 
L 91.118329 249.5232 
L 91.737444 247.104 
L 92.312053 244.6848 
L 92.592758 242.2656 
L 94.856335 239.8464 
L 98.862588 237.4272 
L 99.367918 235.008 
L 99.434034 232.5888 
L 158.182426 230.1696 
L 159.724175 227.7504 
L 161.432578 225.3312 
L 162.116656 222.912 
L 162.793401 220.4928 
L 163.955127 218.0736 
L 165.58368 215.6544 
L 173.897262 213.2352 
L 175.044313 210.816 
L 175.145535 208.3968 
L 177.288165 205.9776 
L 177.357582 203.5584 
L 186.133447 201.1392 
L 186.213639 198.72 
L 196.534752 196.3008 
L 209.176565 193.8816 
L 209.284275 191.4624 
L 210.876589 189.0432 
L 219.689185 186.624 
L 232.533862 184.2048 
L 232.590301 181.7856 
L 241.902332 179.3664 
L 251.785892 176.9472 
L 251.903127 174.528 
L 252.002129 172.1088 
L 252.35995 169.6896 
L 264.287791 167.2704 
L 264.397957 164.8512 
L 266.477064 162.432 
L 266.832167 160.0128 
L 268.997591 157.5936 
L 302.603436 155.1744 
L 307.040057 152.7552 
L 307.115934 150.336 
L 324.616476 147.9168 
L 325.12253 145.4976 
L 325.238335 143.0784 
L 326.930822 140.6592 
L 326.983953 138.24 
L 327.050818 135.8208 
L 327.129591 133.4016 
L 329.956531 130.9824 
L 330.277093 128.5632 
L 330.339398 126.144 
L 333.921224 123.7248 
L 333.998789 121.3056 
L 334.048775 118.8864 
L 334.375021 116.4672 
L 335.627166 114.048 
L 335.880857 111.6288 
L 336.751222 109.2096 
L 336.858429 106.7904 
L 337.184782 104.3712 
L 339.649226 101.952 
L 339.722747 99.5328 
L 341.545666 97.1136 
L 341.62711 94.6944 
L 342.794095 92.2752 
L 353.118713 89.856 
L 357.644496 87.4368 
L 357.707185 85.0176 
L 360.149869 82.5984 
L 361.505431 80.1792 
L 361.556315 77.76 
L 363.876493 75.3408 
L 364.455332 72.9216 
L 380.675633 70.5024 
L 380.733239 68.0832 
L 382.762166 65.664 
L 385.770992 63.2448 
L 385.841484 60.8256 
L 386.353573 58.4064 
L 386.945378 55.9872 
L 387.07526 53.568 
" clip-path="url(#pe0198e71ef)" style="fill: none; stroke: #ff7f0e; stroke-width: 1.5; stroke-linecap: square"/>
   </g>
   <g id="line2d_17">
    <path d="M 73.832727 295.488 
L 73.921146 293.0688 
L 73.995231 290.6496 
L 76.667604 288.2304 
L 77.164097 285.8112 
L 77.226218 283.392 
L 77.644557 280.9728 
L 77.749252 278.5536 
L 77.844581 276.1344 
L 78.479303 273.7152 
L 80.045082 271.296 
L 121.575149 268.8768 
L 121.645936 266.4576 
L 134.052707 264.0384 
L 139.7704 261.6192 
L 139.87289 259.2 
L 144.218023 256.7808 
L 147.810367 254.3616 
L 148.008306 251.9424 
L 148.104457 249.5232 
L 157.231281 247.104 
L 159.129905 244.6848 
L 159.772937 242.2656 
L 170.906893 239.8464 
L 170.992957 237.4272 
L 172.635455 235.008 
L 172.681758 232.5888 
L 177.656892 230.1696 
L 200.135563 227.7504 
L 200.993539 225.3312 
L 214.127254 222.912 
L 214.183357 220.4928 
L 214.401636 218.0736 
L 215.125265 215.6544 
L 215.292758 213.2352 
L 218.040803 210.816 
L 221.100398 208.3968 
L 223.027715 205.9776 
L 227.077706 203.5584 
L 232.77997 201.1392 
L 233.341753 198.72 
L 234.096019 196.3008 
L 234.356444 193.8816 
L 234.397137 191.4624 
L 244.839878 189.0432 
L 244.956257 186.624 
L 247.603446 184.2048 
L 248.136041 181.7856 
L 288.409606 179.3664 
L 288.456615 176.9472 
L 288.526728 174.528 
L 288.568929 172.1088 
L 305.566111 169.6896 
L 306.586405 167.2704 
L 310.678459 164.8512 
L 310.750681 162.432 
L 310.818127 160.0128 
L 310.876756 157.5936 
L 312.350989 155.1744 
L 312.398876 152.7552 
L 312.991332 150.336 
L 316.538806 147.9168 
L 321.323393 145.4976 
L 321.421091 143.0784 
L 321.522137 140.6592 
L 325.950667 138.24 
L 326.00681 135.8208 
L 326.057591 133.4016 
L 327.597005 130.9824 
L 327.692226 128.5632 
L 327.763293 126.144 
L 327.823786 123.7248 
L 329.144252 121.3056 
L 329.258512 118.8864 
L 334.620068 116.4672 
L 334.66933 114.048 
L 338.842257 111.6288 
L 340.363606 109.2096 
L 341.864971 106.7904 
L 343.051461 104.3712 
L 343.110717 101.952 
L 345.013143 99.5328 
L 345.345797 97.1136 
L 345.428632 94.6944 
L 355.240052 92.2752 
L 355.947307 89.856 
L 356.003967 87.4368 
L 363.078624 85.0176 
L 363.948942 82.5984 
L 365.214778 80.1792 
L 367.215096 77.76 
L 367.272403 75.3408 
L 367.432863 72.9216 
L 367.472658 70.5024 
L 369.99665 68.0832 
L 370.078817 65.664 
L 370.394621 63.2448 
L 371.429244 60.8256 
L 371.5252 58.4064 
L 371.625232 55.9872 
L 371.666472 53.568 
" clip-path="url(#pe0198e71ef)" style="fill: none; stroke: #2ca02c; stroke-width: 1.5; stroke-linecap: square"/>
   </g>
   <g id="line2d_18">
    <path d="M 73.832727 295.488 
L 73.922528 293.0688 
L 74.034676 290.6496 
L 74.099193 288.2304 
L 75.652147 285.8112 
L 76.215399 283.392 
L 78.651579 280.9728 
L 79.396006 278.5536 
L 82.98548 276.1344 
L 85.468379 273.7152 
L 89.528638 271.296 
L 89.8518 268.8768 
L 91.282802 266.4576 
L 92.82337 264.0384 
L 94.73908 261.6192 
L 96.97592 259.2 
L 97.704453 256.7808 
L 97.762784 254.3616 
L 98.209711 251.9424 
L 98.531752 249.5232 
L 102.857168 247.104 
L 144.951538 244.6848 
L 149.564727 242.2656 
L 149.621352 239.8464 
L 150.536599 237.4272 
L 156.693683 235.008 
L 157.009952 232.5888 
L 168.975026 230.1696 
L 169.469613 227.7504 
L 169.58375 225.3312 
L 179.767796 222.912 
L 180.495474 220.4928 
L 182.649941 218.0736 
L 182.724275 215.6544 
L 241.963173 213.2352 
L 242.608777 210.816 
L 242.917768 208.3968 
L 246.982382 205.9776 
L 247.32696 203.5584 
L 248.121278 201.1392 
L 248.374052 198.72 
L 248.456985 196.3008 
L 248.53718 193.8816 
L 250.45142 191.4624 
L 253.616881 189.0432 
L 253.706826 186.624 
L 256.878875 184.2048 
L 256.977286 181.7856 
L 257.998869 179.3664 
L 258.047658 176.9472 
L 259.049548 174.528 
L 261.159044 172.1088 
L 261.434498 169.6896 
L 261.545858 167.2704 
L 275.32382 164.8512 
L 277.729557 162.432 
L 278.225279 160.0128 
L 280.051089 157.5936 
L 280.126053 155.1744 
L 290.813237 152.7552 
L 290.909416 150.336 
L 293.954694 147.9168 
L 297.1712 145.4976 
L 297.232718 143.0784 
L 298.507938 140.6592 
L 298.576072 138.24 
L 298.623054 135.8208 
L 298.894762 133.4016 
L 298.941053 130.9824 
L 299.516396 128.5632 
L 300.276537 126.144 
L 300.368033 123.7248 
L 300.815725 121.3056 
L 301.096869 118.8864 
L 301.145447 116.4672 
L 301.370227 114.048 
L 302.874236 111.6288 
L 303.442697 109.2096 
L 305.765275 106.7904 
L 306.615502 104.3712 
L 307.723387 101.952 
L 308.388818 99.5328 
L 308.433606 97.1136 
L 310.436754 94.6944 
L 313.609184 92.2752 
L 313.683313 89.856 
L 314.532776 87.4368 
L 316.230829 85.0176 
L 316.344403 82.5984 
L 316.993104 80.1792 
L 317.417284 77.76 
L 319.736053 75.3408 
L 320.569625 72.9216 
L 321.643705 70.5024 
L 321.736178 68.0832 
L 323.580396 65.664 
L 324.157513 63.2448 
L 324.718779 60.8256 
L 325.436822 58.4064 
L 325.516537 55.9872 
L 326.009578 53.568 
" clip-path="url(#pe0198e71ef)" style="fill: none; stroke: #d62728; stroke-width: 1.5; stroke-linecap: square"/>
   </g>
   <g id="patch_3">
    <path d="M 57.6 307.584 
L 57.6 41.472 
" style="fill: none; stroke: #000000; stroke-width: 0.8; stroke-linejoin: miter; stroke-linecap: square"/>
   </g>
   <g id="patch_4">
    <path d="M 414.72 307.584 
L 414.72 41.472 
" style="fill: none; stroke: #000000; stroke-width: 0.8; stroke-linejoin: miter; stroke-linecap: square"/>
   </g>
   <g id="patch_5">
    <path d="M 57.6 307.584 
L 414.72 307.584 
" style="fill: none; stroke: #000000; stroke-width: 0.8; stroke-linejoin: miter; stroke-linecap: square"/>
   </g>
   <g id="patch_6">
    <path d="M 57.6 41.472 
L 414.72 41.472 
" style="fill: none; stroke: #000000; stroke-width: 0.8; stroke-linejoin: miter; stroke-linecap: square"/>
   </g>
   <g id="legend_1">
    <g id="patch_7">
     <path d="M 64.6 108.1845 
L 195.370312 108.1845 
Q 197.370312 108.1845 197.370312 106.1845 
L 197.370312 48.472 
Q 197.370312 46.472 195.370312 46.472 
L 64.6 46.472 
Q 62.6 46.472 62.6 48.472 
L 62.6 106.1845 
Q 62.6 108.1845 64.6 108.1845 
z
" style="fill: #ffffff; opacity: 0.8; stroke: #cccccc; stroke-linejoin: miter"/>
    </g>
    <g id="line2d_19">
     <path d="M 66.6 54.570438 
L 76.6 54.570438 
L 86.6 54.570438 
" style="fill: none; stroke: #1f77b4; stroke-width: 1.5; stroke-linecap: square"/>
    </g>
    <g id="text_17">
     <!-- Rastringin's -->
     <g transform="translate(94.6 58.070438) scale(0.1 -0.1)">
      <defs>
       <path id="DejaVuSans-52" d="M 2841 2188 
Q 3044 2119 3236 1894 
Q 3428 1669 3622 1275 
L 4263 0 
L 3584 0 
L 2988 1197 
Q 2756 1666 2539 1819 
Q 2322 1972 1947 1972 
L 1259 1972 
L 1259 0 
L 628 0 
L 628 4666 
L 2053 4666 
Q 2853 4666 3247 4331 
Q 3641 3997 3641 3322 
Q 3641 2881 3436 2590 
Q 3231 2300 2841 2188 
z
M 1259 4147 
L 1259 2491 
L 2053 2491 
Q 2509 2491 2742 2702 
Q 2975 2913 2975 3322 
Q 2975 3731 2742 3939 
Q 2509 4147 2053 4147 
L 1259 4147 
z
" transform="scale(0.015625)"/>
       <path id="DejaVuSans-67" d="M 2906 1791 
Q 2906 2416 2648 2759 
Q 2391 3103 1925 3103 
Q 1463 3103 1205 2759 
Q 947 2416 947 1791 
Q 947 1169 1205 825 
Q 1463 481 1925 481 
Q 2391 481 2648 825 
Q 2906 1169 2906 1791 
z
M 3481 434 
Q 3481 -459 3084 -895 
Q 2688 -1331 1869 -1331 
Q 1566 -1331 1297 -1286 
Q 1028 -1241 775 -1147 
L 775 -588 
Q 1028 -725 1275 -790 
Q 1522 -856 1778 -856 
Q 2344 -856 2625 -561 
Q 2906 -266 2906 331 
L 2906 616 
Q 2728 306 2450 153 
Q 2172 0 1784 0 
Q 1141 0 747 490 
Q 353 981 353 1791 
Q 353 2603 747 3093 
Q 1141 3584 1784 3584 
Q 2172 3584 2450 3431 
Q 2728 3278 2906 2969 
L 2906 3500 
L 3481 3500 
L 3481 434 
z
" transform="scale(0.015625)"/>
       <path id="DejaVuSans-27" d="M 1147 4666 
L 1147 2931 
L 616 2931 
L 616 4666 
L 1147 4666 
z
" transform="scale(0.015625)"/>
      </defs>
      <use xlink:href="#DejaVuSans-52"/>
      <use xlink:href="#DejaVuSans-61" x="67.232422"/>
      <use xlink:href="#DejaVuSans-73" x="128.511719"/>
      <use xlink:href="#DejaVuSans-74" x="180.611328"/>
      <use xlink:href="#DejaVuSans-72" x="219.820312"/>
      <use xlink:href="#DejaVuSans-69" x="260.933594"/>
      <use xlink:href="#DejaVuSans-6e" x="288.716797"/>
      <use xlink:href="#DejaVuSans-67" x="352.095703"/>
      <use xlink:href="#DejaVuSans-69" x="415.572266"/>
      <use xlink:href="#DejaVuSans-6e" x="443.355469"/>
      <use xlink:href="#DejaVuSans-27" x="506.734375"/>
      <use xlink:href="#DejaVuSans-73" x="534.224609"/>
     </g>
    </g>
    <g id="line2d_20">
     <path d="M 66.6 69.248563 
L 76.6 69.248563 
L 86.6 69.248563 
" style="fill: none; stroke: #ff7f0e; stroke-width: 1.5; stroke-linecap: square"/>
    </g>
    <g id="text_18">
     <!-- Griewangk's -->
     <g transform="translate(94.6 72.748563) scale(0.1 -0.1)">
      <defs>
       <path id="DejaVuSans-77" d="M 269 3500 
L 844 3500 
L 1563 769 
L 2278 3500 
L 2956 3500 
L 3675 769 
L 4391 3500 
L 4966 3500 
L 4050 0 
L 3372 0 
L 2619 2869 
L 1863 0 
L 1184 0 
L 269 3500 
z
" transform="scale(0.015625)"/>
       <path id="DejaVuSans-6b" d="M 581 4863 
L 1159 4863 
L 1159 1991 
L 2875 3500 
L 3609 3500 
L 1753 1863 
L 3688 0 
L 2938 0 
L 1159 1709 
L 1159 0 
L 581 0 
L 581 4863 
z
" transform="scale(0.015625)"/>
      </defs>
      <use xlink:href="#DejaVuSans-47"/>
      <use xlink:href="#DejaVuSans-72" x="77.490234"/>
      <use xlink:href="#DejaVuSans-69" x="118.603516"/>
      <use xlink:href="#DejaVuSans-65" x="146.386719"/>
      <use xlink:href="#DejaVuSans-77" x="207.910156"/>
      <use xlink:href="#DejaVuSans-61" x="289.697266"/>
      <use xlink:href="#DejaVuSans-6e" x="350.976562"/>
      <use xlink:href="#DejaVuSans-67" x="414.355469"/>
      <use xlink:href="#DejaVuSans-6b" x="477.832031"/>
      <use xlink:href="#DejaVuSans-27" x="535.742188"/>
      <use xlink:href="#DejaVuSans-73" x="563.232422"/>
     </g>
    </g>
    <g id="line2d_21">
     <path d="M 66.6 83.926688 
L 76.6 83.926688 
L 86.6 83.926688 
" style="fill: none; stroke: #2ca02c; stroke-width: 1.5; stroke-linecap: square"/>
    </g>
    <g id="text_19">
     <!-- Rosenbrock's valley -->
     <g transform="translate(94.6 87.426688) scale(0.1 -0.1)">
      <defs>
       <path id="DejaVuSans-62" d="M 3116 1747 
Q 3116 2381 2855 2742 
Q 2594 3103 2138 3103 
Q 1681 3103 1420 2742 
Q 1159 2381 1159 1747 
Q 1159 1113 1420 752 
Q 1681 391 2138 391 
Q 2594 391 2855 752 
Q 3116 1113 3116 1747 
z
M 1159 2969 
Q 1341 3281 1617 3432 
Q 1894 3584 2278 3584 
Q 2916 3584 3314 3078 
Q 3713 2572 3713 1747 
Q 3713 922 3314 415 
Q 2916 -91 2278 -91 
Q 1894 -91 1617 61 
Q 1341 213 1159 525 
L 1159 0 
L 581 0 
L 581 4863 
L 1159 4863 
L 1159 2969 
z
" transform="scale(0.015625)"/>
       <path id="DejaVuSans-76" d="M 191 3500 
L 800 3500 
L 1894 563 
L 2988 3500 
L 3597 3500 
L 2284 0 
L 1503 0 
L 191 3500 
z
" transform="scale(0.015625)"/>
       <path id="DejaVuSans-6c" d="M 603 4863 
L 1178 4863 
L 1178 0 
L 603 0 
L 603 4863 
z
" transform="scale(0.015625)"/>
       <path id="DejaVuSans-79" d="M 2059 -325 
Q 1816 -950 1584 -1140 
Q 1353 -1331 966 -1331 
L 506 -1331 
L 506 -850 
L 844 -850 
Q 1081 -850 1212 -737 
Q 1344 -625 1503 -206 
L 1606 56 
L 191 3500 
L 800 3500 
L 1894 763 
L 2988 3500 
L 3597 3500 
L 2059 -325 
z
" transform="scale(0.015625)"/>
      </defs>
      <use xlink:href="#DejaVuSans-52"/>
      <use xlink:href="#DejaVuSans-6f" x="64.982422"/>
      <use xlink:href="#DejaVuSans-73" x="126.164062"/>
      <use xlink:href="#DejaVuSans-65" x="178.263672"/>
      <use xlink:href="#DejaVuSans-6e" x="239.787109"/>
      <use xlink:href="#DejaVuSans-62" x="303.166016"/>
      <use xlink:href="#DejaVuSans-72" x="366.642578"/>
      <use xlink:href="#DejaVuSans-6f" x="405.505859"/>
      <use xlink:href="#DejaVuSans-63" x="466.6875"/>
      <use xlink:href="#DejaVuSans-6b" x="521.667969"/>
      <use xlink:href="#DejaVuSans-27" x="579.578125"/>
      <use xlink:href="#DejaVuSans-73" x="607.068359"/>
      <use xlink:href="#DejaVuSans-20" x="659.167969"/>
      <use xlink:href="#DejaVuSans-76" x="690.955078"/>
      <use xlink:href="#DejaVuSans-61" x="750.134766"/>
      <use xlink:href="#DejaVuSans-6c" x="811.414062"/>
      <use xlink:href="#DejaVuSans-6c" x="839.197266"/>
      <use xlink:href="#DejaVuSans-65" x="866.980469"/>
      <use xlink:href="#DejaVuSans-79" x="928.503906"/>
     </g>
    </g>
    <g id="line2d_22">
     <path d="M 66.6 98.604813 
L 76.6 98.604813 
L 86.6 98.604813 
" style="fill: none; stroke: #d62728; stroke-width: 1.5; stroke-linecap: square"/>
    </g>
    <g id="text_20">
     <!-- Michalewicz's -->
     <g transform="translate(94.6 102.104813) scale(0.1 -0.1)">
      <defs>
       <path id="DejaVuSans-4d" d="M 628 4666 
L 1569 4666 
L 2759 1491 
L 3956 4666 
L 4897 4666 
L 4897 0 
L 4281 0 
L 4281 4097 
L 3078 897 
L 2444 897 
L 1241 4097 
L 1241 0 
L 628 0 
L 628 4666 
z
" transform="scale(0.015625)"/>
       <path id="DejaVuSans-68" d="M 3513 2113 
L 3513 0 
L 2938 0 
L 2938 2094 
Q 2938 2591 2744 2837 
Q 2550 3084 2163 3084 
Q 1697 3084 1428 2787 
Q 1159 2491 1159 1978 
L 1159 0 
L 581 0 
L 581 4863 
L 1159 4863 
L 1159 2956 
Q 1366 3272 1645 3428 
Q 1925 3584 2291 3584 
Q 2894 3584 3203 3211 
Q 3513 2838 3513 2113 
z
" transform="scale(0.015625)"/>
       <path id="DejaVuSans-7a" d="M 353 3500 
L 3084 3500 
L 3084 2975 
L 922 459 
L 3084 459 
L 3084 0 
L 275 0 
L 275 525 
L 2438 3041 
L 353 3041 
L 353 3500 
z
" transform="scale(0.015625)"/>
      </defs>
      <use xlink:href="#DejaVuSans-4d"/>
      <use xlink:href="#DejaVuSans-69" x="86.279297"/>
      <use xlink:href="#DejaVuSans-63" x="114.0625"/>
      <use xlink:href="#DejaVuSans-68" x="169.042969"/>
      <use xlink:href="#DejaVuSans-61" x="232.421875"/>
      <use xlink:href="#DejaVuSans-6c" x="293.701172"/>
      <use xlink:href="#DejaVuSans-65" x="321.484375"/>
      <use xlink:href="#DejaVuSans-77" x="383.007812"/>
      <use xlink:href="#DejaVuSans-69" x="464.794922"/>
      <use xlink:href="#DejaVuSans-63" x="492.578125"/>
      <use xlink:href="#DejaVuSans-7a" x="547.558594"/>
      <use xlink:href="#DejaVuSans-27" x="600.048828"/>
      <use xlink:href="#DejaVuSans-73" x="627.539062"/>
     </g>
    </g>
   </g>
  </g>
 </g>
 <defs>
  <clipPath id="pe0198e71ef">
   <rect x="57.6" y="41.472" width="357.12" height="266.112"/>
  </clipPath>
 </defs>
</svg>
