<?xml version="1.0" encoding="utf-8" standalone="no"?>
<!DOCTYPE svg PUBLIC "-//W3C//DTD SVG 1.1//EN"
  "http://www.w3.org/Graphics/SVG/1.1/DTD/svg11.dtd">
<svg xmlns:xlink="http://www.w3.org/1999/xlink" width="460.8pt" height="345.6pt" viewBox="0 0 460.8 345.6" xmlns="http://www.w3.org/2000/svg" version="1.1">
 <metadata>
  <rdf:RDF xmlns:dc="http://purl.org/dc/elements/1.1/" xmlns:cc="http://creativecommons.org/ns#" xmlns:rdf="http://www.w3.org/1999/02/22-rdf-syntax-ns#">
   <cc:Work>
    <dc:type rdf:resource="http://purl.org/dc/dcmitype/StillImage"/>
    <dc:date>2023-11-02T03:46:04.116161</dc:date>
    <dc:format>image/svg+xml</dc:format>
    <dc:creator>
     <cc:Agent>
      <dc:title>Matplotlib v3.8.0, https://matplotlib.org/</dc:title>
     </cc:Agent>
    </dc:creator>
   </cc:Work>
  </rdf:RDF>
 </metadata>
 <defs>
  <style type="text/css">*{stroke-linejoin: round; stroke-linecap: butt}</style>
 </defs>
 <g id="figure_1">
  <g id="patch_1">
   <path d="M 0 345.6 
L 460.8 345.6 
L 460.8 0 
L 0 0 
z
" style="fill: #ffffff"/>
  </g>
  <g id="axes_1">
   <g id="patch_2">
    <path d="M 57.6 307.584 
L 414.72 307.584 
L 414.72 41.472 
L 57.6 41.472 
z
" style="fill: #ffffff"/>
   </g>
   <g id="matplotlib.axis_1">
    <g id="xtick_1">
     <g id="line2d_1">
      <defs>
       <path id="me63532c74f" d="M 0 0 
L 0 3.5 
" style="stroke: #000000; stroke-width: 0.8"/>
      </defs>
      <g>
       <use xlink:href="#me63532c74f" x="70.586182" y="307.584" style="stroke: #000000; stroke-width: 0.8"/>
      </g>
     </g>
     <g id="text_1">
      <!-- 0 -->
      <g transform="translate(67.404932 322.182437) scale(0.1 -0.1)">
       <defs>
        <path id="DejaVuSans-30" d="M 2034 4250 
Q 1547 4250 1301 3770 
Q 1056 3291 1056 2328 
Q 1056 1369 1301 889 
Q 1547 409 2034 409 
Q 2525 409 2770 889 
Q 3016 1369 3016 2328 
Q 3016 3291 2770 3770 
Q 2525 4250 2034 4250 
z
M 2034 4750 
Q 2819 4750 3233 4129 
Q 3647 3509 3647 2328 
Q 3647 1150 3233 529 
Q 2819 -91 2034 -91 
Q 1250 -91 836 529 
Q 422 1150 422 2328 
Q 422 3509 836 4129 
Q 1250 4750 2034 4750 
z
" transform="scale(0.015625)"/>
       </defs>
       <use xlink:href="#DejaVuSans-30"/>
      </g>
     </g>
    </g>
    <g id="xtick_2">
     <g id="line2d_2">
      <g>
       <use xlink:href="#me63532c74f" x="135.517091" y="307.584" style="stroke: #000000; stroke-width: 0.8"/>
      </g>
     </g>
     <g id="text_2">
      <!-- 20 -->
      <g transform="translate(129.154591 322.182437) scale(0.1 -0.1)">
       <defs>
        <path id="DejaVuSans-32" d="M 1228 531 
L 3431 531 
L 3431 0 
L 469 0 
L 469 531 
Q 828 903 1448 1529 
Q 2069 2156 2228 2338 
Q 2531 2678 2651 2914 
Q 2772 3150 2772 3378 
Q 2772 3750 2511 3984 
Q 2250 4219 1831 4219 
Q 1534 4219 1204 4116 
Q 875 4013 500 3803 
L 500 4441 
Q 881 4594 1212 4672 
Q 1544 4750 1819 4750 
Q 2544 4750 2975 4387 
Q 3406 4025 3406 3419 
Q 3406 3131 3298 2873 
Q 3191 2616 2906 2266 
Q 2828 2175 2409 1742 
Q 1991 1309 1228 531 
z
" transform="scale(0.015625)"/>
       </defs>
       <use xlink:href="#DejaVuSans-32"/>
       <use xlink:href="#DejaVuSans-30" x="63.623047"/>
      </g>
     </g>
    </g>
    <g id="xtick_3">
     <g id="line2d_3">
      <g>
       <use xlink:href="#me63532c74f" x="200.448" y="307.584" style="stroke: #000000; stroke-width: 0.8"/>
      </g>
     </g>
     <g id="text_3">
      <!-- 40 -->
      <g transform="translate(194.0855 322.182437) scale(0.1 -0.1)">
       <defs>
        <path id="DejaVuSans-34" d="M 2419 4116 
L 825 1625 
L 2419 1625 
L 2419 4116 
z
M 2253 4666 
L 3047 4666 
L 3047 1625 
L 3713 1625 
L 3713 1100 
L 3047 1100 
L 3047 0 
L 2419 0 
L 2419 1100 
L 313 1100 
L 313 1709 
L 2253 4666 
z
" transform="scale(0.015625)"/>
       </defs>
       <use xlink:href="#DejaVuSans-34"/>
       <use xlink:href="#DejaVuSans-30" x="63.623047"/>
      </g>
     </g>
    </g>
    <g id="xtick_4">
     <g id="line2d_4">
      <g>
       <use xlink:href="#me63532c74f" x="265.378909" y="307.584" style="stroke: #000000; stroke-width: 0.8"/>
      </g>
     </g>
     <g id="text_4">
      <!-- 60 -->
      <g transform="translate(259.016409 322.182437) scale(0.1 -0.1)">
       <defs>
        <path id="DejaVuSans-36" d="M 2113 2584 
Q 1688 2584 1439 2293 
Q 1191 2003 1191 1497 
Q 1191 994 1439 701 
Q 1688 409 2113 409 
Q 2538 409 2786 701 
Q 3034 994 3034 1497 
Q 3034 2003 2786 2293 
Q 2538 2584 2113 2584 
z
M 3366 4563 
L 3366 3988 
Q 3128 4100 2886 4159 
Q 2644 4219 2406 4219 
Q 1781 4219 1451 3797 
Q 1122 3375 1075 2522 
Q 1259 2794 1537 2939 
Q 1816 3084 2150 3084 
Q 2853 3084 3261 2657 
Q 3669 2231 3669 1497 
Q 3669 778 3244 343 
Q 2819 -91 2113 -91 
Q 1303 -91 875 529 
Q 447 1150 447 2328 
Q 447 3434 972 4092 
Q 1497 4750 2381 4750 
Q 2619 4750 2861 4703 
Q 3103 4656 3366 4563 
z
" transform="scale(0.015625)"/>
       </defs>
       <use xlink:href="#DejaVuSans-36"/>
       <use xlink:href="#DejaVuSans-30" x="63.623047"/>
      </g>
     </g>
    </g>
    <g id="xtick_5">
     <g id="line2d_5">
      <g>
       <use xlink:href="#me63532c74f" x="330.309818" y="307.584" style="stroke: #000000; stroke-width: 0.8"/>
      </g>
     </g>
     <g id="text_5">
      <!-- 80 -->
      <g transform="translate(323.947318 322.182437) scale(0.1 -0.1)">
       <defs>
        <path id="DejaVuSans-38" d="M 2034 2216 
Q 1584 2216 1326 1975 
Q 1069 1734 1069 1313 
Q 1069 891 1326 650 
Q 1584 409 2034 409 
Q 2484 409 2743 651 
Q 3003 894 3003 1313 
Q 3003 1734 2745 1975 
Q 2488 2216 2034 2216 
z
M 1403 2484 
Q 997 2584 770 2862 
Q 544 3141 544 3541 
Q 544 4100 942 4425 
Q 1341 4750 2034 4750 
Q 2731 4750 3128 4425 
Q 3525 4100 3525 3541 
Q 3525 3141 3298 2862 
Q 3072 2584 2669 2484 
Q 3125 2378 3379 2068 
Q 3634 1759 3634 1313 
Q 3634 634 3220 271 
Q 2806 -91 2034 -91 
Q 1263 -91 848 271 
Q 434 634 434 1313 
Q 434 1759 690 2068 
Q 947 2378 1403 2484 
z
M 1172 3481 
Q 1172 3119 1398 2916 
Q 1625 2713 2034 2713 
Q 2441 2713 2670 2916 
Q 2900 3119 2900 3481 
Q 2900 3844 2670 4047 
Q 2441 4250 2034 4250 
Q 1625 4250 1398 4047 
Q 1172 3844 1172 3481 
z
" transform="scale(0.015625)"/>
       </defs>
       <use xlink:href="#DejaVuSans-38"/>
       <use xlink:href="#DejaVuSans-30" x="63.623047"/>
      </g>
     </g>
    </g>
    <g id="xtick_6">
     <g id="line2d_6">
      <g>
       <use xlink:href="#me63532c74f" x="395.240727" y="307.584" style="stroke: #000000; stroke-width: 0.8"/>
      </g>
     </g>
     <g id="text_6">
      <!-- 100 -->
      <g transform="translate(385.696977 322.182437) scale(0.1 -0.1)">
       <defs>
        <path id="DejaVuSans-31" d="M 794 531 
L 1825 531 
L 1825 4091 
L 703 3866 
L 703 4441 
L 1819 4666 
L 2450 4666 
L 2450 531 
L 3481 531 
L 3481 0 
L 794 0 
L 794 531 
z
" transform="scale(0.015625)"/>
       </defs>
       <use xlink:href="#DejaVuSans-31"/>
       <use xlink:href="#DejaVuSans-30" x="63.623047"/>
       <use xlink:href="#DejaVuSans-30" x="127.246094"/>
      </g>
     </g>
    </g>
    <g id="text_7">
     <!-- Generation -->
     <g transform="translate(208.267031 335.860562) scale(0.1 -0.1)">
      <defs>
       <path id="DejaVuSans-47" d="M 3809 666 
L 3809 1919 
L 2778 1919 
L 2778 2438 
L 4434 2438 
L 4434 434 
Q 4069 175 3628 42 
Q 3188 -91 2688 -91 
Q 1594 -91 976 548 
Q 359 1188 359 2328 
Q 359 3472 976 4111 
Q 1594 4750 2688 4750 
Q 3144 4750 3555 4637 
Q 3966 4525 4313 4306 
L 4313 3634 
Q 3963 3931 3569 4081 
Q 3175 4231 2741 4231 
Q 1884 4231 1454 3753 
Q 1025 3275 1025 2328 
Q 1025 1384 1454 906 
Q 1884 428 2741 428 
Q 3075 428 3337 486 
Q 3600 544 3809 666 
z
" transform="scale(0.015625)"/>
       <path id="DejaVuSans-65" d="M 3597 1894 
L 3597 1613 
L 953 1613 
Q 991 1019 1311 708 
Q 1631 397 2203 397 
Q 2534 397 2845 478 
Q 3156 559 3463 722 
L 3463 178 
Q 3153 47 2828 -22 
Q 2503 -91 2169 -91 
Q 1331 -91 842 396 
Q 353 884 353 1716 
Q 353 2575 817 3079 
Q 1281 3584 2069 3584 
Q 2775 3584 3186 3129 
Q 3597 2675 3597 1894 
z
M 3022 2063 
Q 3016 2534 2758 2815 
Q 2500 3097 2075 3097 
Q 1594 3097 1305 2825 
Q 1016 2553 972 2059 
L 3022 2063 
z
" transform="scale(0.015625)"/>
       <path id="DejaVuSans-6e" d="M 3513 2113 
L 3513 0 
L 2938 0 
L 2938 2094 
Q 2938 2591 2744 2837 
Q 2550 3084 2163 3084 
Q 1697 3084 1428 2787 
Q 1159 2491 1159 1978 
L 1159 0 
L 581 0 
L 581 3500 
L 1159 3500 
L 1159 2956 
Q 1366 3272 1645 3428 
Q 1925 3584 2291 3584 
Q 2894 3584 3203 3211 
Q 3513 2838 3513 2113 
z
" transform="scale(0.015625)"/>
       <path id="DejaVuSans-72" d="M 2631 2963 
Q 2534 3019 2420 3045 
Q 2306 3072 2169 3072 
Q 1681 3072 1420 2755 
Q 1159 2438 1159 1844 
L 1159 0 
L 581 0 
L 581 3500 
L 1159 3500 
L 1159 2956 
Q 1341 3275 1631 3429 
Q 1922 3584 2338 3584 
Q 2397 3584 2469 3576 
Q 2541 3569 2628 3553 
L 2631 2963 
z
" transform="scale(0.015625)"/>
       <path id="DejaVuSans-61" d="M 2194 1759 
Q 1497 1759 1228 1600 
Q 959 1441 959 1056 
Q 959 750 1161 570 
Q 1363 391 1709 391 
Q 2188 391 2477 730 
Q 2766 1069 2766 1631 
L 2766 1759 
L 2194 1759 
z
M 3341 1997 
L 3341 0 
L 2766 0 
L 2766 531 
Q 2569 213 2275 61 
Q 1981 -91 1556 -91 
Q 1019 -91 701 211 
Q 384 513 384 1019 
Q 384 1609 779 1909 
Q 1175 2209 1959 2209 
L 2766 2209 
L 2766 2266 
Q 2766 2663 2505 2880 
Q 2244 3097 1772 3097 
Q 1472 3097 1187 3025 
Q 903 2953 641 2809 
L 641 3341 
Q 956 3463 1253 3523 
Q 1550 3584 1831 3584 
Q 2591 3584 2966 3190 
Q 3341 2797 3341 1997 
z
" transform="scale(0.015625)"/>
       <path id="DejaVuSans-74" d="M 1172 4494 
L 1172 3500 
L 2356 3500 
L 2356 3053 
L 1172 3053 
L 1172 1153 
Q 1172 725 1289 603 
Q 1406 481 1766 481 
L 2356 481 
L 2356 0 
L 1766 0 
Q 1100 0 847 248 
Q 594 497 594 1153 
L 594 3053 
L 172 3053 
L 172 3500 
L 594 3500 
L 594 4494 
L 1172 4494 
z
" transform="scale(0.015625)"/>
       <path id="DejaVuSans-69" d="M 603 3500 
L 1178 3500 
L 1178 0 
L 603 0 
L 603 3500 
z
M 603 4863 
L 1178 4863 
L 1178 4134 
L 603 4134 
L 603 4863 
z
" transform="scale(0.015625)"/>
       <path id="DejaVuSans-6f" d="M 1959 3097 
Q 1497 3097 1228 2736 
Q 959 2375 959 1747 
Q 959 1119 1226 758 
Q 1494 397 1959 397 
Q 2419 397 2687 759 
Q 2956 1122 2956 1747 
Q 2956 2369 2687 2733 
Q 2419 3097 1959 3097 
z
M 1959 3584 
Q 2709 3584 3137 3096 
Q 3566 2609 3566 1747 
Q 3566 888 3137 398 
Q 2709 -91 1959 -91 
Q 1206 -91 779 398 
Q 353 888 353 1747 
Q 353 2609 779 3096 
Q 1206 3584 1959 3584 
z
" transform="scale(0.015625)"/>
      </defs>
      <use xlink:href="#DejaVuSans-47"/>
      <use xlink:href="#DejaVuSans-65" x="77.490234"/>
      <use xlink:href="#DejaVuSans-6e" x="139.013672"/>
      <use xlink:href="#DejaVuSans-65" x="202.392578"/>
      <use xlink:href="#DejaVuSans-72" x="263.916016"/>
      <use xlink:href="#DejaVuSans-61" x="305.029297"/>
      <use xlink:href="#DejaVuSans-74" x="366.308594"/>
      <use xlink:href="#DejaVuSans-69" x="405.517578"/>
      <use xlink:href="#DejaVuSans-6f" x="433.300781"/>
      <use xlink:href="#DejaVuSans-6e" x="494.482422"/>
     </g>
    </g>
   </g>
   <g id="matplotlib.axis_2">
    <g id="ytick_1">
     <g id="line2d_7">
      <defs>
       <path id="m4879cefedf" d="M 0 0 
L -3.5 0 
" style="stroke: #000000; stroke-width: 0.8"/>
      </defs>
      <g>
       <use xlink:href="#m4879cefedf" x="57.6" y="295.488" style="stroke: #000000; stroke-width: 0.8"/>
      </g>
     </g>
     <g id="text_8">
      <!-- 0.00 -->
      <g transform="translate(28.334375 299.287219) scale(0.1 -0.1)">
       <defs>
        <path id="DejaVuSans-2e" d="M 684 794 
L 1344 794 
L 1344 0 
L 684 0 
L 684 794 
z
" transform="scale(0.015625)"/>
       </defs>
       <use xlink:href="#DejaVuSans-30"/>
       <use xlink:href="#DejaVuSans-2e" x="63.623047"/>
       <use xlink:href="#DejaVuSans-30" x="95.410156"/>
       <use xlink:href="#DejaVuSans-30" x="159.033203"/>
      </g>
     </g>
    </g>
    <g id="ytick_2">
     <g id="line2d_8">
      <g>
       <use xlink:href="#m4879cefedf" x="57.6" y="259.143108" style="stroke: #000000; stroke-width: 0.8"/>
      </g>
     </g>
     <g id="text_9">
      <!-- 0.25 -->
      <g transform="translate(28.334375 262.942327) scale(0.1 -0.1)">
       <defs>
        <path id="DejaVuSans-35" d="M 691 4666 
L 3169 4666 
L 3169 4134 
L 1269 4134 
L 1269 2991 
Q 1406 3038 1543 3061 
Q 1681 3084 1819 3084 
Q 2600 3084 3056 2656 
Q 3513 2228 3513 1497 
Q 3513 744 3044 326 
Q 2575 -91 1722 -91 
Q 1428 -91 1123 -41 
Q 819 9 494 109 
L 494 744 
Q 775 591 1075 516 
Q 1375 441 1709 441 
Q 2250 441 2565 725 
Q 2881 1009 2881 1497 
Q 2881 1984 2565 2268 
Q 2250 2553 1709 2553 
Q 1456 2553 1204 2497 
Q 953 2441 691 2322 
L 691 4666 
z
" transform="scale(0.015625)"/>
       </defs>
       <use xlink:href="#DejaVuSans-30"/>
       <use xlink:href="#DejaVuSans-2e" x="63.623047"/>
       <use xlink:href="#DejaVuSans-32" x="95.410156"/>
       <use xlink:href="#DejaVuSans-35" x="159.033203"/>
      </g>
     </g>
    </g>
    <g id="ytick_3">
     <g id="line2d_9">
      <g>
       <use xlink:href="#m4879cefedf" x="57.6" y="222.798216" style="stroke: #000000; stroke-width: 0.8"/>
      </g>
     </g>
     <g id="text_10">
      <!-- 0.50 -->
      <g transform="translate(28.334375 226.597434) scale(0.1 -0.1)">
       <use xlink:href="#DejaVuSans-30"/>
       <use xlink:href="#DejaVuSans-2e" x="63.623047"/>
       <use xlink:href="#DejaVuSans-35" x="95.410156"/>
       <use xlink:href="#DejaVuSans-30" x="159.033203"/>
      </g>
     </g>
    </g>
    <g id="ytick_4">
     <g id="line2d_10">
      <g>
       <use xlink:href="#m4879cefedf" x="57.6" y="186.453323" style="stroke: #000000; stroke-width: 0.8"/>
      </g>
     </g>
     <g id="text_11">
      <!-- 0.75 -->
      <g transform="translate(28.334375 190.252542) scale(0.1 -0.1)">
       <defs>
        <path id="DejaVuSans-37" d="M 525 4666 
L 3525 4666 
L 3525 4397 
L 1831 0 
L 1172 0 
L 2766 4134 
L 525 4134 
L 525 4666 
z
" transform="scale(0.015625)"/>
       </defs>
       <use xlink:href="#DejaVuSans-30"/>
       <use xlink:href="#DejaVuSans-2e" x="63.623047"/>
       <use xlink:href="#DejaVuSans-37" x="95.410156"/>
       <use xlink:href="#DejaVuSans-35" x="159.033203"/>
      </g>
     </g>
    </g>
    <g id="ytick_5">
     <g id="line2d_11">
      <g>
       <use xlink:href="#m4879cefedf" x="57.6" y="150.108431" style="stroke: #000000; stroke-width: 0.8"/>
      </g>
     </g>
     <g id="text_12">
      <!-- 1.00 -->
      <g transform="translate(28.334375 153.90765) scale(0.1 -0.1)">
       <use xlink:href="#DejaVuSans-31"/>
       <use xlink:href="#DejaVuSans-2e" x="63.623047"/>
       <use xlink:href="#DejaVuSans-30" x="95.410156"/>
       <use xlink:href="#DejaVuSans-30" x="159.033203"/>
      </g>
     </g>
    </g>
    <g id="ytick_6">
     <g id="line2d_12">
      <g>
       <use xlink:href="#m4879cefedf" x="57.6" y="113.763539" style="stroke: #000000; stroke-width: 0.8"/>
      </g>
     </g>
     <g id="text_13">
      <!-- 1.25 -->
      <g transform="translate(28.334375 117.562758) scale(0.1 -0.1)">
       <use xlink:href="#DejaVuSans-31"/>
       <use xlink:href="#DejaVuSans-2e" x="63.623047"/>
       <use xlink:href="#DejaVuSans-32" x="95.410156"/>
       <use xlink:href="#DejaVuSans-35" x="159.033203"/>
      </g>
     </g>
    </g>
    <g id="ytick_7">
     <g id="line2d_13">
      <g>
       <use xlink:href="#m4879cefedf" x="57.6" y="77.418647" style="stroke: #000000; stroke-width: 0.8"/>
      </g>
     </g>
     <g id="text_14">
      <!-- 1.50 -->
      <g transform="translate(28.334375 81.217865) scale(0.1 -0.1)">
       <use xlink:href="#DejaVuSans-31"/>
       <use xlink:href="#DejaVuSans-2e" x="63.623047"/>
       <use xlink:href="#DejaVuSans-35" x="95.410156"/>
       <use xlink:href="#DejaVuSans-30" x="159.033203"/>
      </g>
     </g>
    </g>
    <g id="text_15">
     <!-- Fitness -->
     <g transform="translate(22.254687 191.845187) rotate(-90) scale(0.1 -0.1)">
      <defs>
       <path id="DejaVuSans-46" d="M 628 4666 
L 3309 4666 
L 3309 4134 
L 1259 4134 
L 1259 2759 
L 3109 2759 
L 3109 2228 
L 1259 2228 
L 1259 0 
L 628 0 
L 628 4666 
z
" transform="scale(0.015625)"/>
       <path id="DejaVuSans-73" d="M 2834 3397 
L 2834 2853 
Q 2591 2978 2328 3040 
Q 2066 3103 1784 3103 
Q 1356 3103 1142 2972 
Q 928 2841 928 2578 
Q 928 2378 1081 2264 
Q 1234 2150 1697 2047 
L 1894 2003 
Q 2506 1872 2764 1633 
Q 3022 1394 3022 966 
Q 3022 478 2636 193 
Q 2250 -91 1575 -91 
Q 1294 -91 989 -36 
Q 684 19 347 128 
L 347 722 
Q 666 556 975 473 
Q 1284 391 1588 391 
Q 1994 391 2212 530 
Q 2431 669 2431 922 
Q 2431 1156 2273 1281 
Q 2116 1406 1581 1522 
L 1381 1569 
Q 847 1681 609 1914 
Q 372 2147 372 2553 
Q 372 3047 722 3315 
Q 1072 3584 1716 3584 
Q 2034 3584 2315 3537 
Q 2597 3491 2834 3397 
z
" transform="scale(0.015625)"/>
      </defs>
      <use xlink:href="#DejaVuSans-46"/>
      <use xlink:href="#DejaVuSans-69" x="50.269531"/>
      <use xlink:href="#DejaVuSans-74" x="78.052734"/>
      <use xlink:href="#DejaVuSans-6e" x="117.261719"/>
      <use xlink:href="#DejaVuSans-65" x="180.640625"/>
      <use xlink:href="#DejaVuSans-73" x="242.164062"/>
      <use xlink:href="#DejaVuSans-73" x="294.263672"/>
     </g>
    </g>
    <g id="text_16">
     <!-- 1e−5 -->
     <g transform="translate(57.6 38.472) scale(0.1 -0.1)">
      <defs>
       <path id="DejaVuSans-2212" d="M 678 2272 
L 4684 2272 
L 4684 1741 
L 678 1741 
L 678 2272 
z
" transform="scale(0.015625)"/>
      </defs>
      <use xlink:href="#DejaVuSans-31"/>
      <use xlink:href="#DejaVuSans-65" x="63.623047"/>
      <use xlink:href="#DejaVuSans-2212" x="125.146484"/>
      <use xlink:href="#DejaVuSans-35" x="208.935547"/>
     </g>
    </g>
   </g>
   <g id="line2d_14">
    <path d="M 73.832727 295.482367 
L 73.832727 295.487989 
L 103.051636 295.482375 
L 103.051636 295.488 
L 106.298182 295.284211 
L 106.298182 295.415739 
L 109.544727 295.284209 
L 109.544727 295.415742 
L 112.791273 295.284211 
L 112.791273 295.415739 
L 116.037818 295.284209 
L 116.037818 295.415742 
L 119.284364 295.284211 
L 119.284364 295.415739 
L 122.530909 295.284209 
L 122.530909 295.415742 
L 125.777455 295.284211 
L 125.777455 295.415739 
L 129.024 295.284209 
L 129.024 295.415742 
L 132.270545 295.284211 
L 132.270545 295.415739 
L 135.517091 295.284209 
L 135.517091 295.415742 
L 138.763636 295.282372 
L 138.763636 295.395129 
L 142.010182 295.282381 
L 142.010182 295.395106 
L 145.256727 295.282372 
L 145.256727 295.395129 
L 148.503273 295.282381 
L 148.503273 295.395106 
L 151.749818 295.282372 
L 151.749818 295.395129 
L 154.996364 295.282381 
L 154.996364 295.395106 
L 158.242909 295.282372 
L 158.242909 295.395129 
L 161.489455 295.282381 
L 161.489455 295.395106 
L 164.736 295.282372 
L 164.736 295.395129 
L 167.982545 295.282381 
L 167.982545 295.395106 
L 171.229091 295.281352 
L 171.229091 295.394786 
L 174.475636 295.281331 
L 174.475636 295.394837 
L 177.722182 295.281352 
L 177.722182 295.394786 
L 180.968727 295.281331 
L 180.968727 295.394837 
L 184.215273 295.281352 
L 184.215273 295.394786 
L 187.461818 295.281331 
L 187.461818 295.394837 
L 190.708364 295.281352 
L 190.708364 295.394786 
L 193.954909 295.281331 
L 193.954909 295.394837 
L 197.201455 295.281352 
L 197.201455 295.394786 
L 200.448 295.281331 
L 200.448 295.394837 
L 203.694545 293.836295 
L 203.694545 295.28113 
L 206.941091 293.83641 
L 206.941091 295.281168 
L 210.187636 293.836295 
L 210.187636 295.28113 
L 213.434182 293.83641 
L 213.434182 295.281168 
L 216.680727 293.836295 
L 216.680727 295.28113 
L 219.927273 293.83641 
L 219.927273 295.281168 
L 223.173818 293.836295 
L 223.173818 295.28113 
L 226.420364 293.83641 
L 226.420364 295.281168 
L 229.666909 293.836295 
L 229.666909 295.28113 
L 232.913455 293.83641 
L 232.913455 295.281168 
L 236.16 293.804104 
L 236.16 294.771582 
L 239.406545 293.804035 
L 239.406545 294.771681 
L 242.653091 293.804104 
L 242.653091 294.771582 
L 245.899636 293.804035 
L 245.899636 294.771681 
L 249.146182 293.804104 
L 249.146182 294.771582 
L 252.392727 293.804035 
L 252.392727 294.771681 
L 255.639273 293.804104 
L 255.639273 294.771582 
L 258.885818 293.804035 
L 258.885818 294.771681 
L 262.132364 293.804104 
L 262.132364 294.771582 
L 265.378909 293.804035 
L 265.378909 294.771681 
L 268.625455 293.803678 
L 268.625455 294.761532 
L 271.872 293.803743 
L 271.872 294.761488 
L 275.118545 293.803678 
L 275.118545 294.761532 
L 278.365091 293.803743 
L 278.365091 294.761488 
L 281.611636 293.803678 
L 281.611636 294.761532 
L 284.858182 293.803743 
L 284.858182 294.761488 
L 288.104727 293.803678 
L 288.104727 294.761532 
L 291.351273 293.803743 
L 291.351273 294.761488 
L 294.597818 293.803678 
L 294.597818 294.761532 
L 297.844364 293.803743 
L 297.844364 294.761488 
L 301.090909 293.803618 
L 301.090909 294.75855 
L 304.337455 293.803668 
L 304.337455 294.758508 
L 307.584 293.803618 
L 307.584 294.75855 
L 310.830545 293.803668 
L 310.830545 294.758508 
L 314.077091 293.803618 
L 314.077091 294.75855 
L 317.323636 293.803668 
L 317.323636 294.758508 
L 320.570182 293.803618 
L 320.570182 294.75855 
L 323.816727 293.803668 
L 323.816727 294.758508 
L 327.063273 293.803618 
L 327.063273 294.75855 
L 330.309818 293.803668 
L 330.309818 294.758508 
L 333.556364 293.332133 
L 333.556364 294.756301 
L 336.802909 293.332178 
L 336.802909 294.756261 
L 340.049455 293.332133 
L 340.049455 294.756301 
L 343.296 293.332178 
L 343.296 294.756261 
L 346.542545 293.332133 
L 346.542545 294.756301 
L 349.789091 293.332178 
L 349.789091 294.756261 
L 353.035636 293.332133 
L 353.035636 294.756301 
L 356.282182 293.332178 
L 356.282182 294.756261 
L 359.528727 293.332133 
L 359.528727 294.756301 
L 362.775273 293.332178 
L 362.775273 294.756261 
L 366.021818 293.33184 
L 366.021818 294.754806 
L 369.268364 293.331873 
L 369.268364 294.754771 
L 372.514909 293.33184 
L 372.514909 294.754806 
L 375.761455 293.331873 
L 375.761455 294.754771 
L 379.008 293.33184 
L 379.008 294.754806 
L 382.254545 293.331873 
L 382.254545 294.754771 
L 385.501091 293.33184 
L 385.501091 294.754806 
L 388.747636 293.331873 
L 388.747636 294.754771 
L 391.994182 293.33184 
L 391.994182 294.754806 
L 395.240727 293.331873 
L 395.240727 294.754771 
L 398.487273 292.801622 
L 398.487273 294.754084 
L 398.487273 294.754084 
" clip-path="url(#p59dc7e9300)" style="fill: none; stroke: #1f77b4; stroke-width: 1.5; stroke-linecap: square"/>
   </g>
   <g id="line2d_15">
    <path d="M 77.079273 295.488 
L 398.487273 295.485381 
L 398.487273 295.485416 
" clip-path="url(#p59dc7e9300)" style="fill: none; stroke: #ff7f0e; stroke-width: 1.5; stroke-linecap: square"/>
   </g>
   <g id="line2d_16">
    <path d="M 73.832727 256.88666 
L 73.832727 295.488 
L 77.079273 256.88666 
L 77.079273 295.488 
L 80.325818 256.88666 
L 80.325818 295.488 
L 83.572364 256.88666 
L 83.572364 295.488 
L 86.818909 256.88666 
L 86.818909 295.488 
L 90.065455 256.88666 
L 90.065455 295.488 
L 93.312 256.88666 
L 93.312 295.488 
L 96.558545 256.88666 
L 96.558545 295.488 
L 99.805091 256.88666 
L 99.805091 295.488 
L 103.051636 256.88666 
L 103.051636 295.488 
L 106.298182 245.152458 
L 106.298182 289.587903 
L 109.544727 245.15073 
L 109.544727 289.588344 
L 112.791273 245.152458 
L 112.791273 289.587903 
L 116.037818 245.15073 
L 116.037818 289.588344 
L 119.284364 245.152458 
L 119.284364 289.587903 
L 122.530909 245.15073 
L 122.530909 289.588344 
L 125.777455 245.152458 
L 125.777455 289.587903 
L 129.024 245.15073 
L 129.024 289.588344 
L 132.270545 245.152458 
L 132.270545 289.587903 
L 135.517091 245.15073 
L 135.517091 289.588344 
L 138.763636 231.881024 
L 138.763636 282.709636 
L 142.010182 231.884438 
L 142.010182 282.708737 
L 145.256727 231.881024 
L 145.256727 282.709636 
L 148.503273 231.884438 
L 148.503273 282.708737 
L 151.749818 231.881024 
L 151.749818 282.709636 
L 154.996364 231.884438 
L 154.996364 282.708737 
L 158.242909 231.881024 
L 158.242909 282.709636 
L 161.489455 231.884438 
L 161.489455 282.708737 
L 164.736 231.881024 
L 164.736 282.709636 
L 167.982545 231.884438 
L 167.982545 282.708737 
L 171.229091 216.950228 
L 171.229091 274.749886 
L 174.475636 216.95242 
L 174.475636 274.749292 
L 177.722182 216.950228 
L 177.722182 274.749886 
L 180.968727 216.95242 
L 180.968727 274.749292 
L 184.215273 216.950228 
L 184.215273 274.749886 
L 187.461818 216.95242 
L 187.461818 274.749292 
L 190.708364 216.950228 
L 190.708364 274.749886 
L 193.954909 216.95242 
L 193.954909 274.749292 
L 197.201455 216.950228 
L 197.201455 274.749886 
L 200.448 216.95242 
L 200.448 274.749292 
L 203.694545 200.227721 
L 203.694545 265.595134 
L 206.941091 200.223429 
L 206.941091 265.597518 
L 210.187636 200.227721 
L 210.187636 265.595134 
L 213.434182 200.223429 
L 213.434182 265.597518 
L 216.680727 200.227721 
L 216.680727 265.595134 
L 219.927273 200.223429 
L 219.927273 265.597518 
L 223.173818 200.227721 
L 223.173818 265.595134 
L 226.420364 200.223429 
L 226.420364 265.597518 
L 229.666909 200.227721 
L 229.666909 265.595134 
L 232.913455 200.223429 
L 232.913455 265.597518 
L 236.16 181.570941 
L 236.16 255.121628 
L 239.406545 181.566159 
L 239.406545 255.124347 
L 242.653091 181.570941 
L 242.653091 255.121628 
L 245.899636 181.566159 
L 245.899636 255.124347 
L 249.146182 181.570941 
L 249.146182 255.121628 
L 252.392727 181.566159 
L 252.392727 255.124347 
L 255.639273 181.570941 
L 255.639273 255.121628 
L 258.885818 181.566159 
L 258.885818 255.124347 
L 262.132364 181.570941 
L 262.132364 255.121628 
L 265.378909 181.566159 
L 265.378909 255.124347 
L 268.625455 160.827105 
L 268.625455 243.195405 
L 271.872 160.83393 
L 271.872 243.19144 
L 275.118545 160.827105 
L 275.118545 243.195405 
L 278.365091 160.83393 
L 278.365091 243.19144 
L 281.611636 160.827105 
L 281.611636 243.195405 
L 284.858182 160.83393 
L 284.858182 243.19144 
L 288.104727 160.827105 
L 288.104727 243.195405 
L 291.351273 160.83393 
L 291.351273 243.19144 
L 294.597818 160.827105 
L 294.597818 243.195405 
L 297.844364 160.83393 
L 297.844364 243.19144 
L 301.090909 137.833217 
L 301.090909 229.672285 
L 304.337455 137.839926 
L 304.337455 229.668309 
L 307.584 137.833217 
L 307.584 229.672285 
L 310.830545 137.839926 
L 310.830545 229.668309 
L 314.077091 137.833217 
L 314.077091 229.672285 
L 317.323636 137.839926 
L 317.323636 229.668309 
L 320.570182 137.833217 
L 320.570182 229.672285 
L 323.816727 137.839926 
L 323.816727 229.668309 
L 327.063273 137.833217 
L 327.063273 229.672285 
L 330.309818 137.839926 
L 330.309818 229.668309 
L 333.556364 112.41606 
L 333.556364 214.397874 
L 336.802909 112.409588 
L 336.802909 214.401781 
L 340.049455 112.41606 
L 340.049455 214.397874 
L 343.296 112.409588 
L 343.296 214.401781 
L 346.542545 112.41606 
L 346.542545 214.397874 
L 349.789091 112.409588 
L 349.789091 214.401781 
L 353.035636 112.41606 
L 353.035636 214.397874 
L 356.282182 112.409588 
L 356.282182 214.401781 
L 359.528727 112.41606 
L 359.528727 214.397874 
L 362.775273 112.409588 
L 362.775273 214.401781 
L 366.021818 84.392204 
L 366.021818 197.207558 
L 369.268364 84.385092 
L 369.268364 197.211926 
L 372.514909 84.392204 
L 372.514909 197.207558 
L 375.761455 84.385092 
L 375.761455 197.211926 
L 379.008 84.392204 
L 379.008 197.207558 
L 382.254545 84.385092 
L 382.254545 197.211926 
L 385.501091 84.392204 
L 385.501091 197.207558 
L 388.747636 84.385092 
L 388.747636 197.211926 
L 391.994182 84.392204 
L 391.994182 197.207558 
L 395.240727 84.385092 
L 395.240727 197.211926 
L 398.487273 53.568 
L 398.487273 177.926507 
L 398.487273 177.926507 
" clip-path="url(#p59dc7e9300)" style="fill: none; stroke: #2ca02c; stroke-width: 1.5; stroke-linecap: square"/>
   </g>
   <g id="line2d_17">
    <path d="M 73.832727 295.487983 
L 73.832727 295.488 
L 398.487273 295.479845 
L 398.487273 295.48082 
" clip-path="url(#p59dc7e9300)" style="fill: none; stroke: #d62728; stroke-width: 1.5; stroke-linecap: square"/>
   </g>
   <g id="patch_3">
    <path d="M 57.6 307.584 
L 57.6 41.472 
" style="fill: none; stroke: #000000; stroke-width: 0.8; stroke-linejoin: miter; stroke-linecap: square"/>
   </g>
   <g id="patch_4">
    <path d="M 414.72 307.584 
L 414.72 41.472 
" style="fill: none; stroke: #000000; stroke-width: 0.8; stroke-linejoin: miter; stroke-linecap: square"/>
   </g>
   <g id="patch_5">
    <path d="M 57.6 307.584 
L 414.72 307.584 
" style="fill: none; stroke: #000000; stroke-width: 0.8; stroke-linejoin: miter; stroke-linecap: square"/>
   </g>
   <g id="patch_6">
    <path d="M 57.6 41.472 
L 414.72 41.472 
" style="fill: none; stroke: #000000; stroke-width: 0.8; stroke-linejoin: miter; stroke-linecap: square"/>
   </g>
   <g id="legend_1">
    <g id="patch_7">
     <path d="M 64.6 108.1845 
L 195.370312 108.1845 
Q 197.370312 108.1845 197.370312 106.1845 
L 197.370312 48.472 
Q 197.370312 46.472 195.370312 46.472 
L 64.6 46.472 
Q 62.6 46.472 62.6 48.472 
L 62.6 106.1845 
Q 62.6 108.1845 64.6 108.1845 
z
" style="fill: #ffffff; opacity: 0.8; stroke: #cccccc; stroke-linejoin: miter"/>
    </g>
    <g id="line2d_18">
     <path d="M 66.6 54.570438 
L 76.6 54.570438 
L 86.6 54.570438 
" style="fill: none; stroke: #1f77b4; stroke-width: 1.5; stroke-linecap: square"/>
    </g>
    <g id="text_17">
     <!-- Rastringin's -->
     <g transform="translate(94.6 58.070438) scale(0.1 -0.1)">
      <defs>
       <path id="DejaVuSans-52" d="M 2841 2188 
Q 3044 2119 3236 1894 
Q 3428 1669 3622 1275 
L 4263 0 
L 3584 0 
L 2988 1197 
Q 2756 1666 2539 1819 
Q 2322 1972 1947 1972 
L 1259 1972 
L 1259 0 
L 628 0 
L 628 4666 
L 2053 4666 
Q 2853 4666 3247 4331 
Q 3641 3997 3641 3322 
Q 3641 2881 3436 2590 
Q 3231 2300 2841 2188 
z
M 1259 4147 
L 1259 2491 
L 2053 2491 
Q 2509 2491 2742 2702 
Q 2975 2913 2975 3322 
Q 2975 3731 2742 3939 
Q 2509 4147 2053 4147 
L 1259 4147 
z
" transform="scale(0.015625)"/>
       <path id="DejaVuSans-67" d="M 2906 1791 
Q 2906 2416 2648 2759 
Q 2391 3103 1925 3103 
Q 1463 3103 1205 2759 
Q 947 2416 947 1791 
Q 947 1169 1205 825 
Q 1463 481 1925 481 
Q 2391 481 2648 825 
Q 2906 1169 2906 1791 
z
M 3481 434 
Q 3481 -459 3084 -895 
Q 2688 -1331 1869 -1331 
Q 1566 -1331 1297 -1286 
Q 1028 -1241 775 -1147 
L 775 -588 
Q 1028 -725 1275 -790 
Q 1522 -856 1778 -856 
Q 2344 -856 2625 -561 
Q 2906 -266 2906 331 
L 2906 616 
Q 2728 306 2450 153 
Q 2172 0 1784 0 
Q 1141 0 747 490 
Q 353 981 353 1791 
Q 353 2603 747 3093 
Q 1141 3584 1784 3584 
Q 2172 3584 2450 3431 
Q 2728 3278 2906 2969 
L 2906 3500 
L 3481 3500 
L 3481 434 
z
" transform="scale(0.015625)"/>
       <path id="DejaVuSans-27" d="M 1147 4666 
L 1147 2931 
L 616 2931 
L 616 4666 
L 1147 4666 
z
" transform="scale(0.015625)"/>
      </defs>
      <use xlink:href="#DejaVuSans-52"/>
      <use xlink:href="#DejaVuSans-61" x="67.232422"/>
      <use xlink:href="#DejaVuSans-73" x="128.511719"/>
      <use xlink:href="#DejaVuSans-74" x="180.611328"/>
      <use xlink:href="#DejaVuSans-72" x="219.820312"/>
      <use xlink:href="#DejaVuSans-69" x="260.933594"/>
      <use xlink:href="#DejaVuSans-6e" x="288.716797"/>
      <use xlink:href="#DejaVuSans-67" x="352.095703"/>
      <use xlink:href="#DejaVuSans-69" x="415.572266"/>
      <use xlink:href="#DejaVuSans-6e" x="443.355469"/>
      <use xlink:href="#DejaVuSans-27" x="506.734375"/>
      <use xlink:href="#DejaVuSans-73" x="534.224609"/>
     </g>
    </g>
    <g id="line2d_19">
     <path d="M 66.6 69.248563 
L 76.6 69.248563 
L 86.6 69.248563 
" style="fill: none; stroke: #ff7f0e; stroke-width: 1.5; stroke-linecap: square"/>
    </g>
    <g id="text_18">
     <!-- Griewangk's -->
     <g transform="translate(94.6 72.748563) scale(0.1 -0.1)">
      <defs>
       <path id="DejaVuSans-77" d="M 269 3500 
L 844 3500 
L 1563 769 
L 2278 3500 
L 2956 3500 
L 3675 769 
L 4391 3500 
L 4966 3500 
L 4050 0 
L 3372 0 
L 2619 2869 
L 1863 0 
L 1184 0 
L 269 3500 
z
" transform="scale(0.015625)"/>
       <path id="DejaVuSans-6b" d="M 581 4863 
L 1159 4863 
L 1159 1991 
L 2875 3500 
L 3609 3500 
L 1753 1863 
L 3688 0 
L 2938 0 
L 1159 1709 
L 1159 0 
L 581 0 
L 581 4863 
z
" transform="scale(0.015625)"/>
      </defs>
      <use xlink:href="#DejaVuSans-47"/>
      <use xlink:href="#DejaVuSans-72" x="77.490234"/>
      <use xlink:href="#DejaVuSans-69" x="118.603516"/>
      <use xlink:href="#DejaVuSans-65" x="146.386719"/>
      <use xlink:href="#DejaVuSans-77" x="207.910156"/>
      <use xlink:href="#DejaVuSans-61" x="289.697266"/>
      <use xlink:href="#DejaVuSans-6e" x="350.976562"/>
      <use xlink:href="#DejaVuSans-67" x="414.355469"/>
      <use xlink:href="#DejaVuSans-6b" x="477.832031"/>
      <use xlink:href="#DejaVuSans-27" x="535.742188"/>
      <use xlink:href="#DejaVuSans-73" x="563.232422"/>
     </g>
    </g>
    <g id="line2d_20">
     <path d="M 66.6 83.926688 
L 76.6 83.926688 
L 86.6 83.926688 
" style="fill: none; stroke: #2ca02c; stroke-width: 1.5; stroke-linecap: square"/>
    </g>
    <g id="text_19">
     <!-- Rosenbrock's valley -->
     <g transform="translate(94.6 87.426688) scale(0.1 -0.1)">
      <defs>
       <path id="DejaVuSans-62" d="M 3116 1747 
Q 3116 2381 2855 2742 
Q 2594 3103 2138 3103 
Q 1681 3103 1420 2742 
Q 1159 2381 1159 1747 
Q 1159 1113 1420 752 
Q 1681 391 2138 391 
Q 2594 391 2855 752 
Q 3116 1113 3116 1747 
z
M 1159 2969 
Q 1341 3281 1617 3432 
Q 1894 3584 2278 3584 
Q 2916 3584 3314 3078 
Q 3713 2572 3713 1747 
Q 3713 922 3314 415 
Q 2916 -91 2278 -91 
Q 1894 -91 1617 61 
Q 1341 213 1159 525 
L 1159 0 
L 581 0 
L 581 4863 
L 1159 4863 
L 1159 2969 
z
" transform="scale(0.015625)"/>
       <path id="DejaVuSans-63" d="M 3122 3366 
L 3122 2828 
Q 2878 2963 2633 3030 
Q 2388 3097 2138 3097 
Q 1578 3097 1268 2742 
Q 959 2388 959 1747 
Q 959 1106 1268 751 
Q 1578 397 2138 397 
Q 2388 397 2633 464 
Q 2878 531 3122 666 
L 3122 134 
Q 2881 22 2623 -34 
Q 2366 -91 2075 -91 
Q 1284 -91 818 406 
Q 353 903 353 1747 
Q 353 2603 823 3093 
Q 1294 3584 2113 3584 
Q 2378 3584 2631 3529 
Q 2884 3475 3122 3366 
z
" transform="scale(0.015625)"/>
       <path id="DejaVuSans-20" transform="scale(0.015625)"/>
       <path id="DejaVuSans-76" d="M 191 3500 
L 800 3500 
L 1894 563 
L 2988 3500 
L 3597 3500 
L 2284 0 
L 1503 0 
L 191 3500 
z
" transform="scale(0.015625)"/>
       <path id="DejaVuSans-6c" d="M 603 4863 
L 1178 4863 
L 1178 0 
L 603 0 
L 603 4863 
z
" transform="scale(0.015625)"/>
       <path id="DejaVuSans-79" d="M 2059 -325 
Q 1816 -950 1584 -1140 
Q 1353 -1331 966 -1331 
L 506 -1331 
L 506 -850 
L 844 -850 
Q 1081 -850 1212 -737 
Q 1344 -625 1503 -206 
L 1606 56 
L 191 3500 
L 800 3500 
L 1894 763 
L 2988 3500 
L 3597 3500 
L 2059 -325 
z
" transform="scale(0.015625)"/>
      </defs>
      <use xlink:href="#DejaVuSans-52"/>
      <use xlink:href="#DejaVuSans-6f" x="64.982422"/>
      <use xlink:href="#DejaVuSans-73" x="126.164062"/>
      <use xlink:href="#DejaVuSans-65" x="178.263672"/>
      <use xlink:href="#DejaVuSans-6e" x="239.787109"/>
      <use xlink:href="#DejaVuSans-62" x="303.166016"/>
      <use xlink:href="#DejaVuSans-72" x="366.642578"/>
      <use xlink:href="#DejaVuSans-6f" x="405.505859"/>
      <use xlink:href="#DejaVuSans-63" x="466.6875"/>
      <use xlink:href="#DejaVuSans-6b" x="521.667969"/>
      <use xlink:href="#DejaVuSans-27" x="579.578125"/>
      <use xlink:href="#DejaVuSans-73" x="607.068359"/>
      <use xlink:href="#DejaVuSans-20" x="659.167969"/>
      <use xlink:href="#DejaVuSans-76" x="690.955078"/>
      <use xlink:href="#DejaVuSans-61" x="750.134766"/>
      <use xlink:href="#DejaVuSans-6c" x="811.414062"/>
      <use xlink:href="#DejaVuSans-6c" x="839.197266"/>
      <use xlink:href="#DejaVuSans-65" x="866.980469"/>
      <use xlink:href="#DejaVuSans-79" x="928.503906"/>
     </g>
    </g>
    <g id="line2d_21">
     <path d="M 66.6 98.604813 
L 76.6 98.604813 
L 86.6 98.604813 
" style="fill: none; stroke: #d62728; stroke-width: 1.5; stroke-linecap: square"/>
    </g>
    <g id="text_20">
     <!-- Michalewicz's -->
     <g transform="translate(94.6 102.104813) scale(0.1 -0.1)">
      <defs>
       <path id="DejaVuSans-4d" d="M 628 4666 
L 1569 4666 
L 2759 1491 
L 3956 4666 
L 4897 4666 
L 4897 0 
L 4281 0 
L 4281 4097 
L 3078 897 
L 2444 897 
L 1241 4097 
L 1241 0 
L 628 0 
L 628 4666 
z
" transform="scale(0.015625)"/>
       <path id="DejaVuSans-68" d="M 3513 2113 
L 3513 0 
L 2938 0 
L 2938 2094 
Q 2938 2591 2744 2837 
Q 2550 3084 2163 3084 
Q 1697 3084 1428 2787 
Q 1159 2491 1159 1978 
L 1159 0 
L 581 0 
L 581 4863 
L 1159 4863 
L 1159 2956 
Q 1366 3272 1645 3428 
Q 1925 3584 2291 3584 
Q 2894 3584 3203 3211 
Q 3513 2838 3513 2113 
z
" transform="scale(0.015625)"/>
       <path id="DejaVuSans-7a" d="M 353 3500 
L 3084 3500 
L 3084 2975 
L 922 459 
L 3084 459 
L 3084 0 
L 275 0 
L 275 525 
L 2438 3041 
L 353 3041 
L 353 3500 
z
" transform="scale(0.015625)"/>
      </defs>
      <use xlink:href="#DejaVuSans-4d"/>
      <use xlink:href="#DejaVuSans-69" x="86.279297"/>
      <use xlink:href="#DejaVuSans-63" x="114.0625"/>
      <use xlink:href="#DejaVuSans-68" x="169.042969"/>
      <use xlink:href="#DejaVuSans-61" x="232.421875"/>
      <use xlink:href="#DejaVuSans-6c" x="293.701172"/>
      <use xlink:href="#DejaVuSans-65" x="321.484375"/>
      <use xlink:href="#DejaVuSans-77" x="383.007812"/>
      <use xlink:href="#DejaVuSans-69" x="464.794922"/>
      <use xlink:href="#DejaVuSans-63" x="492.578125"/>
      <use xlink:href="#DejaVuSans-7a" x="547.558594"/>
      <use xlink:href="#DejaVuSans-27" x="600.048828"/>
      <use xlink:href="#DejaVuSans-73" x="627.539062"/>
     </g>
    </g>
   </g>
  </g>
 </g>
 <defs>
  <clipPath id="p59dc7e9300">
   <rect x="57.6" y="41.472" width="357.12" height="266.112"/>
  </clipPath>
 </defs>
</svg>
